<svg width="186" height="192" viewBox="0 0 186 192" fill="none" xmlns="http://www.w3.org/2000/svg">
<path fill-rule="evenodd" clip-rule="evenodd" d="M99.0995 76.5335C116.758 73.4393 130.194 57.9286 130.194 39.244C130.194 32.605 128.498 26.3667 125.518 20.9438C107.86 24.038 94.4237 39.5487 94.4237 58.2333C94.4237 64.8723 96.1201 71.1106 99.0995 76.5335ZM98.3652 78.0637C96.4887 78.3432 94.5686 78.4879 92.6149 78.4879C90.8469 78.4879 89.1065 78.3694 87.4009 78.1398C84.7876 82.4768 81.3632 86.2634 77.3397 89.286C77.7372 91.5339 77.9445 93.848 77.9445 96.2108C77.9445 99.0933 77.6359 101.903 77.0502 104.609C80.5681 107.201 83.6382 110.373 86.1219 113.985C88.0997 113.674 90.1268 113.512 92.1914 113.512C94.7803 113.512 97.3103 113.766 99.7581 114.251C102.086 110.806 104.943 107.754 108.213 105.213C107.601 102.451 107.279 99.5802 107.279 96.633C107.279 94.0716 107.522 91.5675 107.988 89.143C104.13 86.0999 100.857 82.3405 98.3652 78.0637ZM75.81 103.732C76.2964 101.301 76.5517 98.7861 76.5517 96.2108C76.5517 94.1631 76.3903 92.1535 76.0796 90.1941C69.8145 94.5225 62.2301 97.0551 54.0583 97.0551C35.415 97.0551 19.8292 83.8731 15.9915 66.2601C7.11206 73.1817 1.39286 84.0208 1.39286 96.2108C1.39286 108.555 7.25794 119.515 16.3306 126.423C20.6794 109.53 35.9221 97.0552 54.0583 97.0552C62.1133 97.0552 69.5975 99.5159 75.81 103.732ZM17.5449 127.31C21.5516 110.74 36.3856 98.448 54.0583 98.448C62.0205 98.448 69.4065 100.943 75.4857 105.2C71.479 121.77 56.6449 134.062 38.9723 134.062C31.0101 134.062 23.6241 131.567 17.5449 127.31ZM15.9804 127.901C15.3946 130.607 15.086 133.417 15.086 136.299C15.086 157.973 32.5345 175.543 54.0583 175.543C56.1229 175.543 58.15 175.381 60.1278 175.07C67.1619 185.3 78.8995 192 92.1914 192C105.598 192 117.424 185.183 124.436 174.804C126.884 175.289 129.414 175.543 132.003 175.543C153.527 175.543 170.975 157.973 170.975 136.299C170.975 133.352 170.653 130.481 170.041 127.719C179.275 120.543 185.223 109.287 185.223 96.633C185.223 84.0819 179.372 72.907 170.266 65.7233C170.732 63.2988 170.975 60.7947 170.975 58.2333C170.975 36.5595 153.527 18.9893 132.003 18.9893C130.049 18.9893 128.129 19.1341 126.253 19.4135C119.485 7.79854 106.955 0 92.6149 0C78.4813 0 66.1049 7.57608 59.2722 18.9153C57.5667 18.6857 55.8262 18.5672 54.0583 18.5672C32.5345 18.5672 15.086 36.1373 15.086 57.8111C15.086 60.174 15.2934 62.4881 15.6908 64.736C6.16693 71.8908 0 83.3256 0 96.2108C0 109.226 6.29212 120.762 15.9804 127.901ZM16.9509 63.8279C16.6403 61.8685 16.4789 59.8589 16.4789 57.8111C16.4789 36.8974 33.3129 19.96 54.0583 19.96C55.5671 19.96 57.0552 20.0496 58.5177 20.2238C55.4115 25.8581 53.6426 32.343 53.6426 39.244C53.6426 58.6152 67.5806 74.7083 85.9088 77.9091C83.5476 81.6972 80.5388 85.0338 77.0391 87.7619C73.2014 70.1489 57.6156 56.9669 38.9723 56.9669C30.8004 56.9669 23.216 59.4995 16.9509 63.8279ZM17.2222 65.3404C23.3619 60.9441 30.8687 58.3597 38.9723 58.3597C57.1602 58.3597 72.3416 71.3784 75.8083 88.6816C69.6686 93.0779 62.1619 95.6623 54.0583 95.6623C35.8704 95.6623 20.6889 82.6436 17.2222 65.3404ZM17.2205 128.778C23.4331 132.994 30.9173 135.455 38.9723 135.455C47.6456 135.455 55.6572 132.602 62.132 127.777C56.5643 134.563 53.2191 143.266 53.2191 152.756C53.2191 160.494 55.443 167.709 59.2822 173.787C57.5748 174.027 55.8308 174.15 54.0583 174.15C33.3129 174.15 16.4789 157.213 16.4789 136.299C16.4789 133.724 16.7341 131.209 17.2205 128.778ZM69.0316 121.19C72.598 116.843 75.2525 111.71 76.7 106.087C79.7265 108.392 82.3961 111.147 84.6101 114.254C78.8632 115.395 73.5699 117.808 69.0316 121.19ZM132.003 174.15C129.699 174.15 127.444 173.941 125.255 173.541C128.999 167.514 131.164 160.39 131.164 152.756C131.164 142.945 127.588 133.975 121.678 127.095C128.383 132.586 136.935 135.877 146.251 135.877C154.659 135.877 162.445 133.196 168.812 128.636C169.317 131.111 169.582 133.674 169.582 136.299C169.582 157.213 152.749 174.15 132.003 174.15ZM108.574 106.704C110.11 112.547 112.951 117.856 116.764 122.294C112.298 118.637 107.012 115.955 101.227 114.572C103.293 111.609 105.77 108.958 108.574 106.704ZM129.771 152.756C129.771 134.684 117.201 119.582 100.399 115.811C96.6183 121.715 94.4237 128.748 94.4237 136.299C94.4237 154.371 106.994 169.474 123.795 173.245C127.576 167.34 129.771 160.307 129.771 152.756ZM93.0308 136.299C93.0308 128.666 95.1953 121.541 98.9399 115.514C96.7504 115.114 94.495 114.905 92.1914 114.905C90.4188 114.905 88.6748 115.029 86.9674 115.268C90.8067 121.347 93.0306 128.561 93.0306 136.299C93.0306 155.361 79.5344 171.248 61.6395 174.801C68.4606 184.374 79.6062 190.607 92.1914 190.607C104.915 190.607 116.168 184.236 122.967 174.483C105.801 170.379 93.0308 154.841 93.0308 136.299ZM54.6119 152.756C54.6119 160.436 56.8821 167.58 60.7825 173.546C78.3224 170.354 91.6377 154.899 91.6377 136.299C91.6377 128.619 89.3675 121.475 85.4671 115.509C67.9272 118.701 54.6119 134.156 54.6119 152.756ZM109.232 90.0849C108.863 92.2117 108.671 94.3997 108.671 96.633C108.671 99.2585 108.937 101.821 109.442 104.296C114.769 100.481 121.09 97.9811 127.937 97.2662C120.999 96.542 114.602 93.9852 109.232 90.0849ZM168.479 127.156C162.253 131.763 154.566 134.484 146.251 134.484C128.633 134.484 113.836 122.269 109.775 105.777C116.001 101.169 123.688 98.448 132.003 98.448C149.621 98.448 164.418 110.663 168.479 127.156ZM169.68 126.229C178.303 119.295 183.83 108.617 183.83 96.633C183.83 84.7711 178.415 74.1884 169.942 67.2497C166.197 83.2874 152.683 95.5318 136.069 97.2662C152.317 98.9625 165.601 110.711 169.68 126.229ZM168.728 66.2965C165.059 83.3329 150.003 96.0844 132.003 96.0844C123.577 96.0844 115.796 93.29 109.526 88.5698C113.195 71.5334 128.251 58.7819 146.251 58.7819C154.677 58.7819 162.458 61.5763 168.728 66.2965ZM169.022 64.7814C162.617 60.1297 154.752 57.389 146.251 57.389C127.808 57.389 112.358 70.2887 108.312 87.6166C104.96 84.8712 102.086 81.5553 99.8367 77.8155C117.91 74.4054 131.587 58.4331 131.587 39.244C131.587 32.5437 129.92 26.2356 126.98 20.7175C128.623 20.4964 130.3 20.3822 132.003 20.3822C152.749 20.3822 169.582 37.3196 169.582 58.2333C169.582 60.4666 169.391 62.6546 169.022 64.7814ZM97.6383 76.7598C95.995 76.9809 94.3181 77.0951 92.6149 77.0951C91.1061 77.0951 89.618 77.0055 88.1555 76.8313C91.2616 71.1971 93.0306 64.7121 93.0306 57.8111C93.0306 38.4399 79.0926 22.3468 60.7644 19.146C67.4128 8.47993 79.1955 1.39286 92.6149 1.39286C106.249 1.39286 118.194 8.70903 124.781 19.6618C106.708 23.0719 93.0308 39.0442 93.0308 58.2333C93.0308 64.9336 94.6984 71.2417 97.6383 76.7598ZM91.6377 57.8111C91.6377 38.935 77.9241 23.2981 59.9985 20.4304C56.8411 25.9715 55.0355 32.3945 55.0355 39.244C55.0355 58.1201 68.749 73.757 86.6746 76.6247C89.832 71.0836 91.6377 64.6606 91.6377 57.8111Z" fill="url(#paint0_linear_1058_7927)"/>
<defs>
<linearGradient id="paint0_linear_1058_7927" x1="54.4851" y1="99.2571" x2="53.1913" y2="190.9" gradientUnits="userSpaceOnUse">
<stop stop-color="#EA5297"/>
<stop offset="0.505208" stop-color="#5BC5F2" stop-opacity="0.91"/>
<stop offset="0.828932" stop-color="#636AAF"/>
</linearGradient>
</defs>
</svg>
