<svg width="225" height="192" viewBox="0 0 225 192" fill="none" xmlns="http://www.w3.org/2000/svg">
<path fill-rule="evenodd" clip-rule="evenodd" d="M131.075 77.2599C132.817 77.2599 134.532 77.1425 136.211 76.915C133.203 71.3602 131.494 64.9966 131.494 58.2335C131.494 38.9816 145.34 22.9675 163.605 19.6289C156.958 8.6012 144.876 1.22802 131.075 1.22802C110.108 1.22802 93.1077 18.2469 93.1077 39.244C93.1077 60.2411 110.108 77.2599 131.075 77.2599ZM132.722 58.2335C132.722 64.9427 134.458 71.2458 137.504 76.7172C155.41 73.6593 169.042 58.0467 169.042 39.244C169.042 32.5348 167.307 26.2317 164.26 20.7603C146.354 23.8182 132.722 39.4308 132.722 58.2335ZM131.075 78.488C133.04 78.488 134.971 78.3432 136.859 78.0637C139.365 82.3411 142.658 86.101 146.538 89.1443C146.07 91.5685 145.825 94.0722 145.825 96.6332C145.825 99.5798 146.149 102.451 146.764 105.212C143.475 107.753 140.601 110.806 138.26 114.251C135.798 113.766 133.254 113.512 130.65 113.512C109.003 113.512 91.4545 131.082 91.4545 152.756C91.4545 174.43 109.003 192 130.65 192C144.133 192 156.027 185.183 163.079 174.804C165.541 175.288 168.086 175.543 170.689 175.543C192.336 175.543 209.885 157.973 209.885 136.299C209.885 133.352 209.56 130.481 208.946 127.72C218.233 120.544 224.216 109.288 224.216 96.6332C224.216 84.0814 218.33 72.906 209.172 65.7223C209.64 63.2982 209.885 60.7945 209.885 58.2335C209.885 36.5596 192.336 18.9895 170.689 18.9895C168.724 18.9895 166.793 19.1343 164.906 19.4138C158.099 7.79864 145.497 0 131.075 0C109.428 0 91.8797 17.5701 91.8797 39.244C91.8797 60.9178 109.428 78.488 131.075 78.488ZM163.808 173.692C166.04 174.101 168.34 174.315 170.689 174.315C191.657 174.315 208.657 157.296 208.657 136.299C208.657 133.635 208.383 131.036 207.863 128.528C201.431 133.153 193.544 135.877 185.02 135.877C175.649 135.877 167.046 132.584 160.303 127.092C166.248 133.972 169.845 142.943 169.845 152.756C169.845 160.453 167.632 167.633 163.808 173.692ZM155.367 122.298C151.492 117.813 148.615 112.44 147.081 106.524C144.205 108.813 141.668 111.511 139.559 114.53C145.449 115.901 150.829 118.601 155.367 122.298ZM138.823 115.623C155.863 119.366 168.617 134.569 168.617 152.756C168.617 160.381 166.376 167.481 162.516 173.432C145.477 169.689 132.722 154.486 132.722 136.299C132.722 128.674 134.964 121.574 138.823 115.623ZM137.531 115.363C133.707 121.422 131.494 128.601 131.494 136.299C131.494 154.904 144.425 170.486 161.78 174.525C154.916 184.348 143.532 190.772 130.65 190.772C109.682 190.772 92.6825 173.753 92.6825 152.756C92.6825 131.759 109.682 114.74 130.65 114.74C133 114.74 135.3 114.954 137.531 115.363ZM147.053 96.6332C147.053 94.3612 147.252 92.1357 147.634 89.9734C153.066 93.936 159.554 96.5345 166.597 97.2661C159.646 97.9881 153.235 100.529 147.847 104.404C147.327 101.896 147.053 99.2965 147.053 96.6332ZM185.02 134.649C193.463 134.649 201.263 131.89 207.568 127.222C203.503 110.609 188.533 98.2827 170.689 98.2827C162.247 98.2827 154.447 101.042 148.142 105.709C152.206 122.323 167.177 134.649 185.02 134.649ZM222.988 96.6332C222.988 108.695 217.378 119.443 208.629 126.408C204.582 110.802 191.184 98.97 174.782 97.2661C191.553 95.5239 205.183 83.1932 208.888 67.0665C217.489 74.0357 222.988 84.691 222.988 96.6332ZM170.689 96.2494C188.918 96.2494 204.148 83.3863 207.816 66.2288C201.467 61.4496 193.574 58.6173 185.02 58.6173C166.792 58.6173 151.562 71.4804 147.894 88.6379C154.242 93.4171 162.136 96.2494 170.689 96.2494ZM185.02 57.3892C193.638 57.3892 201.606 60.1738 208.076 64.8933C208.458 62.7309 208.657 60.5055 208.657 58.2335C208.657 37.2364 191.657 20.2175 170.689 20.2175C168.947 20.2175 167.233 20.335 165.553 20.5624C168.562 26.1173 170.27 32.4808 170.27 39.244C170.27 58.4959 156.425 74.51 138.16 77.8486C140.452 81.6511 143.39 85.0191 146.822 87.8002C150.824 70.38 166.407 57.3892 185.02 57.3892ZM118.051 83.9613C118.291 83.7217 118.68 83.7219 118.92 83.9619L130.42 95.4767L130.856 95.9133L130.417 96.3472L117.863 108.757C117.622 108.995 117.233 108.993 116.995 108.752C116.757 108.511 116.759 108.122 117 107.884L128.491 96.5246H128.451H128.367H128.283H128.199H128.116H128.032H127.949H127.866H127.783H127.7H127.617H127.535H127.452H127.37H127.288H127.206H127.124H127.042H126.96H126.879H126.797H126.716H126.635H126.554H126.473H126.392H126.311H126.231H126.15H126.07H125.99H125.91H125.83H125.75H125.67H125.591H125.511H125.432H125.353H125.274H125.195H125.116H125.037H124.958H124.88H124.801H124.723H124.645H124.567H124.489H124.411H124.333H124.255H124.178H124.1H124.023H123.946H123.869H123.792H123.715H123.638H123.561H123.484H123.408H123.332H123.255H123.179H123.103H123.027H122.951H122.875H122.799H122.724H122.648H122.573H122.498H122.422H122.347H122.272H122.197H122.122H122.048H121.973H121.898H121.824H121.749H121.675H121.601H121.527H121.453H121.379H121.305H121.231H121.157H121.084H121.01H120.937H120.863H120.79H120.717H120.644H120.571H120.498H120.425H120.352H120.279H120.207H120.134H120.061H119.989H119.917H119.844H119.772H119.7H119.628H119.556H119.484H119.412H119.34H119.269H119.197H119.125H119.054H118.982H118.911H118.84H118.769H118.697H118.626H118.555H118.484H118.413H118.342H118.272H118.201H118.13H118.06H117.989H117.919H117.848H117.778H117.707H117.637H117.567H117.497H117.427H117.357H117.287H117.217H117.147H117.077H117.007H116.937H116.868H116.798H116.728H116.659H116.589H116.52H116.451H116.381H116.312H116.243H116.173H116.104H116.035H115.966H115.897H115.828H115.759H115.69H115.621H115.552H115.483H115.415H115.346H115.277H115.209H115.14H115.071H115.003H114.934H114.866H114.797H114.729H114.66H114.592H114.524H114.455H114.387H114.319H114.251H114.183H114.114H114.046H113.978H113.91H113.842H113.774H113.706H113.638H113.57H113.502H113.434H113.366H113.298H113.23H113.162H113.095H113.027H112.959H112.891H112.823H112.756H112.688H112.62H112.552H112.485H112.417H112.349H112.282H112.214H112.146H112.079H112.011H111.944H111.876H111.808H111.741H111.673H111.606H111.538H111.47H111.403H111.335H111.268H111.2H111.133H111.065H110.997H110.93H110.862H110.795H110.727H110.66H110.592H110.524H110.457H110.389H110.322H110.254H110.186H110.119H110.051H109.983H109.916H109.848H109.78H109.713H109.645H109.577H109.51H109.442H109.374H109.306H109.239H109.171H109.103H109.035H108.967H108.9H108.832H108.764H108.696H108.628H108.56H108.492H108.424H108.356H108.288H108.22H108.152H108.084H108.016H107.947H107.879H107.811H107.743H107.674H107.606H107.538H107.469H107.401H107.333H107.264H107.196H107.127H107.059H106.99H106.921H106.853H106.784H106.715H106.646H106.578H106.509H106.44H106.371H106.302H106.233H106.164H106.095H106.026H105.957H105.887H105.818H105.749H105.679H105.61H105.54H105.471H105.401H105.332H105.262H105.193H105.123H105.053H104.983H104.913H104.843H104.773H104.703H104.633H104.563H104.493H104.423H104.352H104.282H104.211H104.141H104.07H104H103.929H103.858H103.787H103.717H103.646H103.575H103.504H103.433H103.361H103.29H103.219H103.147H103.076H103.004H102.933H102.861H102.79H102.718H102.646H102.574H102.502H102.43H102.358H102.286H102.213H102.141H102.068H101.996H101.923H101.851H101.778H101.705H101.632H101.559H101.486H101.413H101.34H101.267H101.193H101.12H101.046H100.973H100.899H100.825H100.751H100.677H100.603H100.529H100.455H100.38H100.306H100.232H100.157H100.082H100.008H99.9327H99.8577H99.7827H99.7075H99.6323H99.557H99.4816H99.406H99.3304H99.2547H99.1789H99.103H99.027H98.9509H98.8747H98.7984H98.722H98.6455H98.5688H98.4921H98.4153H98.3384H98.2614H98.1842H98.107H98.0297H97.9522H97.8747H97.797H97.7192H97.6413H97.5634H97.4853H97.407H97.3287H97.2503H97.1717H97.0931H97.0143H96.9354H96.8564H96.7773H96.698H96.6187H96.5392H96.4596H96.3799H96.3001H96.2202H96.1401H96.0599H95.9796H95.8992H95.8186H95.7379H95.6571H95.5762H95.4952H95.414H95.3327H95.2513H95.1697H95.088H95.0062H94.9243H94.8422H94.76H94.6777H94.5953H94.5127H94.4299H94.3471H94.2641H94.181H94.0977H94.0143H93.9308H93.8471H93.7633H93.6794H93.5953H93.5111H93.4267H93.3422H93.2576H93.1728H93.0879H93.0028H92.9176H92.8323H92.7468H92.6612H92.5754H92.4895H92.4034H92.3172H92.2308H92.1443C91.8052 96.5246 91.5303 96.2497 91.5303 95.9106C91.5303 95.5714 91.8052 95.2965 92.1443 95.2965H92.2308H92.3172H92.4034H92.4895H92.5754H92.6612H92.7468H92.8323H92.9176H93.0028H93.0879H93.1728H93.2576H93.3422H93.4267H93.5111H93.5953H93.6794H93.7633H93.8471H93.9308H94.0143H94.0977H94.181H94.2641H94.3471H94.4299H94.5127H94.5953H94.6777H94.76H94.8422H94.9243H95.0062H95.088H95.1697H95.2513H95.3327H95.414H95.4952H95.5762H95.6571H95.7379H95.8186H95.8992H95.9796H96.0599H96.1401H96.2202H96.3001H96.3799H96.4596H96.5392H96.6187H96.698H96.7773H96.8564H96.9354H97.0143H97.0931H97.1717H97.2503H97.3287H97.407H97.4853H97.5634H97.6413H97.7192H97.797H97.8747H97.9522H98.0297H98.107H98.1842H98.2614H98.3384H98.4153H98.4921H98.5688H98.6455H98.722H98.7984H98.8747H98.9509H99.027H99.103H99.1789H99.2547H99.3304H99.406H99.4816H99.557H99.6323H99.7075H99.7827H99.8577H99.9327H100.008H100.082H100.157H100.232H100.306H100.38H100.455H100.529H100.603H100.677H100.751H100.825H100.899H100.973H101.046H101.12H101.193H101.267H101.34H101.413H101.486H101.559H101.632H101.705H101.778H101.851H101.923H101.996H102.068H102.141H102.213H102.286H102.358H102.43H102.502H102.574H102.646H102.718H102.79H102.861H102.933H103.004H103.076H103.147H103.219H103.29H103.361H103.433H103.504H103.575H103.646H103.717H103.787H103.858H103.929H104H104.07H104.141H104.211H104.282H104.352H104.423H104.493H104.563H104.633H104.703H104.773H104.843H104.913H104.983H105.053H105.123H105.193H105.262H105.332H105.401H105.471H105.54H105.61H105.679H105.749H105.818H105.887H105.957H106.026H106.095H106.164H106.233H106.302H106.371H106.44H106.509H106.578H106.646H106.715H106.784H106.853H106.921H106.99H107.059H107.127H107.196H107.264H107.333H107.401H107.469H107.538H107.606H107.674H107.743H107.811H107.879H107.947H108.016H108.084H108.152H108.22H108.288H108.356H108.424H108.492H108.56H108.628H108.696H108.764H108.832H108.9H108.967H109.035H109.103H109.171H109.239H109.306H109.374H109.442H109.51H109.577H109.645H109.713H109.78H109.848H109.916H109.983H110.051H110.119H110.186H110.254H110.322H110.389H110.457H110.524H110.592H110.66H110.727H110.795H110.862H110.93H110.997H111.065H111.133H111.2H111.268H111.335H111.403H111.47H111.538H111.606H111.673H111.741H111.808H111.876H111.944H112.011H112.079H112.146H112.214H112.282H112.349H112.417H112.485H112.552H112.62H112.688H112.756H112.823H112.891H112.959H113.027H113.095H113.162H113.23H113.298H113.366H113.434H113.502H113.57H113.638H113.706H113.774H113.842H113.91H113.978H114.046H114.114H114.183H114.251H114.319H114.387H114.455H114.524H114.592H114.66H114.729H114.797H114.866H114.934H115.003H115.071H115.14H115.209H115.277H115.346H115.415H115.483H115.552H115.621H115.69H115.759H115.828H115.897H115.966H116.035H116.104H116.173H116.243H116.312H116.381H116.451H116.52H116.589H116.659H116.728H116.798H116.868H116.937H117.007H117.077H117.147H117.217H117.287H117.357H117.427H117.497H117.567H117.637H117.707H117.778H117.848H117.919H117.989H118.06H118.13H118.201H118.272H118.342H118.413H118.484H118.555H118.626H118.697H118.769H118.84H118.911H118.982H119.054H119.125H119.197H119.269H119.34H119.412H119.484H119.556H119.628H119.7H119.772H119.844H119.917H119.989H120.061H120.134H120.207H120.279H120.352H120.425H120.498H120.571H120.644H120.717H120.79H120.863H120.937H121.01H121.084H121.157H121.231H121.305H121.379H121.453H121.527H121.601H121.675H121.749H121.824H121.898H121.973H122.048H122.122H122.197H122.272H122.347H122.422H122.498H122.573H122.648H122.724H122.799H122.875H122.951H123.027H123.103H123.179H123.255H123.332H123.408H123.484H123.561H123.638H123.715H123.792H123.869H123.946H124.023H124.1H124.178H124.255H124.333H124.411H124.489H124.567H124.645H124.723H124.801H124.88H124.958H125.037H125.116H125.195H125.274H125.353H125.432H125.511H125.591H125.67H125.75H125.83H125.91H125.99H126.07H126.15H126.231H126.311H126.392H126.473H126.554H126.635H126.716H126.797H126.879H126.96H127.042H127.124H127.206H127.288H127.37H127.452H127.535H127.617H127.7H127.783H127.866H127.949H128.032H128.116H128.199H128.283H128.367H128.451H128.505L118.051 84.8297C117.811 84.5897 117.811 84.201 118.051 83.9613ZM77.1627 96.2109C77.1627 117.208 60.1627 134.227 39.1954 134.227C18.228 134.227 1.22802 117.208 1.22802 96.2109C1.22802 75.2138 18.228 58.1949 39.1954 58.1949C60.1627 58.1949 77.1627 75.2138 77.1627 96.2109ZM78.3907 96.2109C78.3907 117.885 60.8424 135.455 39.1954 135.455C17.5484 135.455 0 117.885 0 96.2109C0 74.537 17.5484 56.9669 39.1954 56.9669C60.8424 56.9669 78.3907 74.537 78.3907 96.2109Z" fill="url(#paint0_linear_1058_7941)"/>
<defs>
<linearGradient id="paint0_linear_1058_7941" x1="92.7285" y1="99.2571" x2="91.4422" y2="190.9" gradientUnits="userSpaceOnUse">
<stop stop-color="#EA5297"/>
<stop offset="0.505208" stop-color="#5BC5F2" stop-opacity="0.91"/>
<stop offset="0.828932" stop-color="#636AAF"/>
</linearGradient>
</defs>
</svg>
