<svg width="325" height="283" viewBox="0 0 325 283" fill="none" xmlns="http://www.w3.org/2000/svg">
<path fill-rule="evenodd" clip-rule="evenodd" d="M310.428 124.74C318.378 117.553 322.5 109.903 322.5 102.113C322.5 94.3227 318.378 86.6733 310.428 79.4864C302.478 72.2995 290.861 65.7356 276.337 60.1821C247.302 49.0804 207.055 42.1719 162.5 42.1719C117.945 42.1719 77.6982 49.0804 48.663 60.1821C34.1385 65.7356 22.5222 72.2995 14.572 79.4864C6.62165 86.6733 2.5 94.3227 2.5 102.113C2.5 109.903 6.62165 117.553 14.572 124.74C17.7812 127.641 21.5879 130.44 25.9421 133.113C40.0721 109.36 95.6569 91.6307 162.075 91.6307C228.848 91.6307 284.672 109.55 298.431 133.495C303.047 130.708 307.066 127.779 310.428 124.74ZM34.7807 125.707C31.7398 128.455 29.36 131.275 27.6566 134.142C33.7161 137.7 40.7589 141.022 48.663 144.044C57.3907 147.381 67.1315 150.339 77.6977 152.845C99.0805 144.476 128.984 139.278 162.079 139.278C195.337 139.278 225.373 144.528 246.776 152.969C257.545 150.437 267.465 147.436 276.337 144.044C283.967 141.127 290.794 137.931 296.709 134.512C294.993 131.518 292.54 128.573 289.369 125.707C282.552 119.546 272.575 113.906 260.077 109.129C235.094 99.5793 200.446 93.6307 162.075 93.6307C123.704 93.6307 89.0552 99.5793 64.0725 109.129C51.5743 113.906 41.5977 119.546 34.7807 125.707ZM243.266 153.771C222.356 146.062 193.727 141.278 162.079 141.278C130.591 141.278 102.092 146.013 81.2097 153.654C105.031 158.986 132.809 162.054 162.5 162.054C191.973 162.054 219.561 159.031 243.266 153.771ZM77.8483 154.935C102.483 160.719 131.473 164.054 162.5 164.054C193.305 164.054 222.101 160.767 246.621 155.059C256.185 158.886 263.846 163.319 269.181 168.119C271.438 170.15 273.252 172.22 274.621 174.316C270.263 176.637 265.398 178.828 260.077 180.862C245.352 186.49 227.269 190.868 207.045 193.514C193.846 190.537 178.479 188.831 162.077 188.831C145.674 188.831 130.307 190.537 117.107 193.514C96.8818 190.868 78.7981 186.491 64.0725 180.862C58.7534 178.829 53.8911 176.639 49.5347 174.32C50.904 172.222 52.719 170.151 54.9769 168.119C60.3692 163.267 68.1392 158.79 77.8483 154.935ZM162.077 190.831C176.001 190.831 189.144 192.071 200.807 194.267C188.525 195.629 175.528 196.36 162.075 196.36C148.622 196.36 135.626 195.629 123.345 194.268C135.008 192.071 148.152 190.831 162.077 190.831ZM162.075 198.36C146.377 198.36 131.285 197.37 117.202 195.544C110.825 196.997 104.977 198.749 99.792 200.745C91.8646 203.797 85.5864 207.383 81.3248 211.262C80.4579 212.051 79.681 212.846 78.9933 213.645C79.1089 213.69 79.2248 213.734 79.3409 213.779C79.4179 213.808 79.4949 213.838 79.5721 213.867C100.589 221.865 129.759 226.854 162.079 226.854C194.398 226.854 223.568 221.865 244.586 213.867C244.778 213.794 244.97 213.72 245.161 213.646C244.473 212.847 243.696 212.052 242.828 211.262C238.567 207.383 232.289 203.797 224.361 200.745C219.175 198.748 213.328 196.997 206.95 195.543C192.866 197.37 177.773 198.36 162.075 198.36ZM48.5136 176.042C64.2589 184.442 86.2246 191.023 111.836 194.8C95.502 199.102 83.0768 205.443 77.0346 212.871C67.7045 209.091 60.2177 204.728 54.9769 200.013C49.2686 194.877 46.3906 189.484 46.3906 184.066C46.3906 181.376 47.1002 178.691 48.5136 176.042ZM44.3906 184.066C44.3906 195.831 56.3103 206.537 75.8045 214.529C73.9586 217.28 72.9766 220.164 72.9766 223.137C72.9766 234.199 86.576 244.039 107.689 250.312C104.554 253.111 102.816 256.198 102.816 259.442C102.816 272.145 129.455 282.442 162.316 282.442C195.177 282.442 221.816 272.145 221.816 259.442C221.816 256.157 220.034 253.032 216.823 250.205C237.731 243.927 251.177 234.136 251.177 223.137C251.177 220.164 250.195 217.281 248.35 214.53C267.846 206.538 279.767 195.832 279.767 184.066C279.767 180.988 278.951 177.983 277.398 175.08C292.719 166.514 301.681 156.155 301.681 144.995C301.681 141.673 300.886 138.421 299.366 135.266C315.283 125.68 324.5 114.308 324.5 102.113C324.5 67.9039 251.97 40.1719 162.5 40.1719C73.0299 40.1719 0.5 67.9039 0.5 102.113C0.5 114.14 9.46493 125.366 24.9791 134.869C23.3314 138.147 22.4688 141.533 22.4688 144.995C22.4688 156.157 31.4325 166.517 46.7582 175.083C45.2057 177.985 44.3906 180.99 44.3906 184.066ZM214.916 248.681C218.261 247.716 221.418 246.661 224.361 245.528C232.289 242.476 238.567 238.89 242.828 235.011C247.089 231.132 249.177 227.117 249.177 223.137C249.177 220.521 248.275 217.89 246.447 215.292C225.066 223.658 195.167 228.854 162.079 228.854C128.989 228.854 99.0889 223.657 77.7067 215.291C75.8784 217.889 74.9766 220.52 74.9766 223.137C74.9766 227.117 77.0639 231.132 81.3248 235.011C85.5864 238.89 91.8646 242.476 99.792 245.528C102.836 246.7 106.108 247.788 109.582 248.78C119.526 241.446 139.41 236.442 162.316 236.442C185.12 236.442 204.927 241.401 214.916 248.681ZM112.09 249.471C114.508 247.882 117.486 246.389 120.965 245.044C131.449 240.992 146.068 238.442 162.316 238.442C178.565 238.442 193.184 240.992 203.668 245.044C207.08 246.363 210.011 247.825 212.404 249.38C198.188 253.19 180.842 255.442 162.077 255.442C143.461 255.442 126.242 253.226 112.09 249.471ZM110.003 250.977C124.65 255.045 142.636 257.442 162.077 257.442C181.674 257.442 199.794 255.006 214.505 250.878C214.961 251.237 215.391 251.6 215.791 251.966C218.554 254.491 219.816 257.02 219.816 259.442C219.816 261.865 218.554 264.394 215.791 266.919C213.027 269.445 208.917 271.811 203.668 273.84C193.184 277.893 178.565 280.442 162.316 280.442C146.068 280.442 131.449 277.893 120.965 273.84C115.716 271.811 111.605 269.445 108.841 266.919C106.079 264.394 104.816 261.865 104.816 259.442C104.816 257.02 106.079 254.491 108.841 251.966C109.205 251.633 109.593 251.304 110.003 250.977ZM269.181 200.013C263.939 204.729 256.451 209.092 247.12 212.872C241.078 205.444 228.651 199.102 212.315 194.8C237.93 191.022 259.897 184.44 275.642 176.038C277.057 178.689 277.767 181.374 277.767 184.066C277.767 189.484 274.889 194.877 269.181 200.013ZM74.5289 154.135C55.4414 149.406 39.1208 143.183 26.7 135.9C25.2182 138.895 24.4688 141.936 24.4688 144.995C24.4688 151.601 27.9636 158.123 34.7807 164.284C38.2993 167.463 42.6597 170.505 47.7741 173.36C52.4575 166.093 61.8005 159.523 74.5289 154.135ZM276.381 173.357C281.493 170.502 285.851 167.462 289.369 164.284C296.186 158.123 299.681 151.601 299.681 144.995C299.681 142.068 298.994 139.157 297.636 136.286C285.183 143.471 268.916 149.605 249.938 154.266C262.507 159.629 271.735 166.15 276.381 173.357Z" fill="url(#paint0_linear_344_1874)"/>
<defs>
<linearGradient id="paint0_linear_344_1874" x1="119.316" y1="43.9424" x2="141.791" y2="338.868" gradientUnits="userSpaceOnUse">
<stop stop-color="#EA5297"/>
<stop offset="0.505208" stop-color="#5BC5F2" stop-opacity="0.91"/>
<stop offset="0.828932" stop-color="#636AAF"/>
</linearGradient>
</defs>
</svg>
