<svg width="164" height="160" viewBox="0 0 164 160" fill="none" xmlns="http://www.w3.org/2000/svg">
<circle cx="81.9629" cy="80" r="79.5" stroke="url(#paint0_linear_1058_7962)"/>
<path d="M161.353 75.8273C163.473 116.264 129.687 150.972 85.8029 153.272C41.9183 155.572 4.69042 124.586 2.57121 84.1487C0.451997 43.7118 34.237 9.00406 78.1216 6.70416C122.006 4.40427 159.234 35.3904 161.353 75.8273Z" stroke="url(#paint1_linear_1058_7962)"/>
<path d="M161.039 71.9019C164.92 108.822 132.761 142.597 89.0148 147.195C45.2688 151.793 6.79055 125.442 2.91008 88.5219C-0.970401 51.6016 31.1883 17.8264 74.9343 13.2285C118.68 8.6306 157.159 34.9816 161.039 71.9019Z" stroke="url(#paint2_linear_1058_7962)"/>
<path d="M160.468 67.537C165.796 101.177 135.113 134.19 91.6251 141.078C48.1375 147.966 8.75385 126.05 3.42585 92.4101C-1.90215 58.7704 28.7815 25.7567 72.2691 18.869C115.757 11.9812 155.14 33.8973 160.468 67.537Z" stroke="url(#paint3_linear_1058_7962)"/>
<path d="M159.71 63.4535C162.967 78.7746 157.278 94.5282 145.357 107.623C133.436 120.717 115.307 131.119 93.7887 135.692C72.2709 140.266 51.4788 138.138 35.2624 131.024C19.0452 123.911 7.44113 111.833 4.18452 96.5114C0.927908 81.1903 6.61616 65.4367 18.5379 52.3417C30.4589 39.2475 48.5879 28.8464 70.1058 24.2726C91.6236 19.6989 112.416 21.827 128.632 28.9405C144.849 36.0543 156.453 48.1323 159.71 63.4535Z" stroke="url(#paint4_linear_1058_7962)"/>
<path d="M158.775 59.5694C162.503 73.4849 157.376 88.4261 145.944 101.352C134.515 114.275 116.821 125.131 95.5637 130.827C74.3065 136.523 53.5547 135.968 37.1954 130.491C20.8317 125.013 8.92113 114.637 5.19249 100.722C1.46385 86.8062 6.59074 71.865 18.023 58.9389C29.4522 46.0163 47.1462 35.1597 68.4035 29.4638C89.6607 23.768 110.412 24.3231 126.772 29.7998C143.135 35.2779 155.046 45.654 158.775 59.5694Z" stroke="url(#paint5_linear_1058_7962)"/>
<path d="M156.697 55.9663C160.812 68.6314 156.3 82.8551 145.516 95.643C134.737 108.424 117.742 119.703 97.0758 126.418C76.4095 133.132 56.0305 133.998 39.7981 129.993C23.5573 125.986 11.5461 117.131 7.43091 104.466C3.31577 91.8006 7.82832 77.5769 18.6122 64.789C29.3904 52.0078 46.3858 40.7293 67.0521 34.0144C87.7184 27.2995 108.097 26.4344 124.33 30.4393C140.571 34.4463 152.582 43.3012 156.697 55.9663Z" stroke="url(#paint6_linear_1058_7962)"/>
<path d="M154.99 51.9863C159.392 63.4532 155.337 77.023 145.019 89.7383C134.71 102.442 118.211 114.202 97.9553 121.977C77.7 129.752 57.5696 132.053 41.4086 129.51C25.2323 126.966 13.1393 119.594 8.7376 108.127C4.33588 96.6604 8.3902 83.0906 18.7087 70.3753C29.0175 57.6721 45.5167 45.912 65.7721 38.1367C86.0274 30.3614 106.158 28.0607 122.319 30.6031C138.495 33.148 150.588 40.5194 154.99 51.9863Z" stroke="url(#paint7_linear_1058_7962)"/>
<path d="M153.014 47.9279C157.69 58.4292 154.106 71.5389 144.29 84.3099C134.487 97.0632 118.541 109.368 98.7661 118.172C78.9913 126.977 59.1771 130.593 43.1401 129.345C27.0808 128.094 14.9406 121.985 10.2651 111.484C5.58961 100.982 9.17307 87.8728 18.9896 75.1018C28.7926 62.3485 44.7384 50.0435 64.5132 41.2392C84.2879 32.4349 104.102 28.8185 120.139 30.0671C136.198 31.3175 148.339 37.4265 153.014 47.9279Z" stroke="url(#paint8_linear_1058_7962)"/>
<path d="M150.063 45.3531C154.875 54.7981 151.765 67.2986 142.562 79.9626C133.377 92.6019 118.207 105.271 99.2195 114.945C80.2321 124.62 61.0662 129.446 45.442 129.448C29.7871 129.449 17.8459 124.618 13.0334 115.173C8.221 105.728 11.3312 93.2275 20.5342 80.5635C29.7192 67.9242 44.8891 55.2554 63.8765 45.5808C82.864 35.9062 102.03 31.0801 117.654 31.0784C133.309 31.0768 145.25 35.9082 150.063 45.3531Z" stroke="url(#paint9_linear_1058_7962)"/>
<path d="M147.939 39.6353C152.935 47.9147 150.331 59.8926 141.737 72.6961C133.168 85.4625 118.743 98.881 100.483 109.9C82.2234 120.919 63.6282 127.427 48.3392 129.059C33.0057 130.695 21.1948 127.416 16.1985 119.136C11.2021 110.857 13.8059 98.879 22.4002 86.0754C30.9695 73.309 45.3946 59.8906 63.6542 48.8715C81.9138 37.8524 100.509 31.3442 115.798 29.7129C131.131 28.0768 142.942 31.3559 147.939 39.6353Z" stroke="url(#paint10_linear_1058_7962)"/>
<path d="M144.297 39.0762C146.702 42.78 147.302 47.4534 146.266 52.7839C145.229 58.1176 142.557 64.0767 138.465 70.2944C130.282 82.7283 116.473 96.1145 98.9688 107.482C81.4646 118.849 63.6192 126.019 48.9318 128.438C41.5873 129.647 35.0567 129.664 29.7622 128.442C24.471 127.221 20.4459 124.772 18.0406 121.068C15.6354 117.364 15.0348 112.691 16.0713 107.36C17.1085 102.026 19.7804 96.0673 23.8724 89.8497C32.0555 77.4157 45.8643 64.0296 63.3685 52.6622C80.8727 41.2948 98.718 34.1245 113.405 31.7062C120.75 30.4969 127.281 30.4799 132.575 31.7018C137.866 32.9229 141.891 35.3724 144.297 39.0762Z" stroke="url(#paint11_linear_1058_7962)"/>
<path d="M141.318 36.4097C143.709 39.6995 144.394 44.048 143.511 49.1591C142.627 54.2724 140.179 60.1061 136.364 66.2967C128.735 78.6755 115.695 92.3926 99.0413 104.492C82.3879 116.591 65.3124 124.755 51.182 128.185C44.1155 129.9 37.8109 130.426 32.6748 129.686C27.5409 128.947 23.6169 126.951 21.2268 123.661C18.8367 120.372 18.1516 116.023 19.0347 110.912C19.9183 105.799 22.3663 99.965 26.1813 93.7745C33.8101 81.3956 46.8506 67.6785 63.504 55.5791C80.1574 43.4797 97.2329 35.3163 111.363 31.8862C118.43 30.1708 124.734 29.6454 129.87 30.3852C135.004 31.1246 138.928 33.12 141.318 36.4097Z" stroke="url(#paint12_linear_1058_7962)"/>
<path d="M137.647 34.3506C139.962 37.1847 140.696 41.1615 139.947 46.0109C139.198 50.86 136.972 56.5238 133.449 62.6444C126.406 74.8824 114.232 88.8518 98.588 101.632C82.9443 114.413 66.8276 123.556 53.4306 128.018C46.7304 130.249 40.7365 131.3 35.8354 131.067C30.9341 130.834 27.1835 129.322 24.8681 126.488C22.5527 123.654 21.8187 119.677 22.5678 114.827C23.3169 109.978 25.5427 104.315 29.0654 98.1939C36.1091 85.9559 48.2831 71.9865 63.9268 59.206C79.5705 46.4255 95.6872 37.2822 109.084 32.8207C115.784 30.5894 121.778 29.5379 126.679 29.771C131.581 30.0041 135.331 31.5165 137.647 34.3506Z" stroke="url(#paint13_linear_1058_7962)"/>
<path d="M134.732 32.5204C136.991 35.0303 137.791 38.7265 137.198 43.3614C136.606 47.9942 134.628 53.4973 131.426 59.52C125.023 71.5617 113.778 85.5818 99.2001 98.708C84.622 111.834 69.5033 121.552 56.8584 126.661C50.5339 129.216 44.8542 130.608 40.1849 130.713C35.5134 130.818 31.921 129.636 29.6611 127.126C27.4013 124.616 26.6016 120.92 27.1943 116.285C27.7868 111.652 29.7646 106.149 32.967 100.127C39.3697 88.085 50.6144 74.0649 65.1925 60.9387C79.7706 47.8125 94.8893 38.0949 107.534 32.986C113.859 30.4307 119.538 29.0389 124.208 28.9339C128.879 28.8289 132.472 30.0106 134.732 32.5204Z" stroke="url(#paint14_linear_1058_7962)"/>
<path d="M129.748 32.5908C131.851 34.6934 132.654 38.0036 132.185 42.3141C131.716 46.6188 129.983 51.837 127.128 57.6332C121.419 69.2208 111.273 83.0154 98.0342 96.2538C84.7958 109.492 71.0012 119.638 59.4135 125.347C53.6173 128.203 48.3992 129.936 44.0945 130.405C39.7839 130.874 36.4738 130.07 34.3711 127.968C32.2685 125.865 31.4649 122.555 31.9344 118.244C32.4033 113.94 34.1359 108.722 36.9916 102.925C42.7006 91.3377 52.8466 77.5431 66.0851 64.3047C79.3235 51.0662 93.1181 40.9202 104.706 35.2112C110.502 32.3555 115.72 30.6229 120.025 30.154C124.335 29.6845 127.645 30.4881 129.748 32.5908Z" stroke="url(#paint15_linear_1058_7962)"/>
<defs>
<linearGradient id="paint0_linear_1058_7962" x1="82.0481" y1="128.93" x2="87.8097" y2="195.556" gradientUnits="userSpaceOnUse">
<stop stop-color="#EA5297"/>
<stop offset="0.505208" stop-color="#5BC5F2" stop-opacity="0.91"/>
<stop offset="0.828932" stop-color="#636AAF"/>
</linearGradient>
<linearGradient id="paint1_linear_1058_7962" x1="84.4124" y1="125.111" x2="92.5493" y2="186.369" gradientUnits="userSpaceOnUse">
<stop stop-color="#EA5297"/>
<stop offset="0.505208" stop-color="#5BC5F2" stop-opacity="0.91"/>
<stop offset="0.828932" stop-color="#636AAF"/>
</linearGradient>
<linearGradient id="paint2_linear_1058_7962" x1="86.3973" y1="121.476" x2="96.447" y2="177.359" gradientUnits="userSpaceOnUse">
<stop stop-color="#EA5297"/>
<stop offset="0.505208" stop-color="#5BC5F2" stop-opacity="0.91"/>
<stop offset="0.828932" stop-color="#636AAF"/>
</linearGradient>
<linearGradient id="paint3_linear_1058_7962" x1="87.9984" y1="117.635" x2="99.6159" y2="168.536" gradientUnits="userSpaceOnUse">
<stop stop-color="#EA5297"/>
<stop offset="0.505208" stop-color="#5BC5F2" stop-opacity="0.91"/>
<stop offset="0.828932" stop-color="#636AAF"/>
</linearGradient>
<linearGradient id="paint4_linear_1058_7962" x1="89.3368" y1="114.338" x2="102.238" y2="160.69" gradientUnits="userSpaceOnUse">
<stop stop-color="#EA5297"/>
<stop offset="0.505208" stop-color="#5BC5F2" stop-opacity="0.91"/>
<stop offset="0.828932" stop-color="#636AAF"/>
</linearGradient>
<linearGradient id="paint5_linear_1058_7962" x1="90.451" y1="111.417" x2="104.366" y2="153.55" gradientUnits="userSpaceOnUse">
<stop stop-color="#EA5297"/>
<stop offset="0.505208" stop-color="#5BC5F2" stop-opacity="0.91"/>
<stop offset="0.828932" stop-color="#636AAF"/>
</linearGradient>
<linearGradient id="paint6_linear_1058_7962" x1="91.4201" y1="108.739" x2="106.207" y2="147.109" gradientUnits="userSpaceOnUse">
<stop stop-color="#EA5297"/>
<stop offset="0.505208" stop-color="#5BC5F2" stop-opacity="0.91"/>
<stop offset="0.828932" stop-color="#636AAF"/>
</linearGradient>
<linearGradient id="paint7_linear_1058_7962" x1="91.8937" y1="105.952" x2="107.279" y2="140.75" gradientUnits="userSpaceOnUse">
<stop stop-color="#EA5297"/>
<stop offset="0.505208" stop-color="#5BC5F2" stop-opacity="0.91"/>
<stop offset="0.828932" stop-color="#636AAF"/>
</linearGradient>
<linearGradient id="paint8_linear_1058_7962" x1="92.3155" y1="103.478" x2="108.351" y2="135.386" gradientUnits="userSpaceOnUse">
<stop stop-color="#EA5297"/>
<stop offset="0.505208" stop-color="#5BC5F2" stop-opacity="0.91"/>
<stop offset="0.828932" stop-color="#636AAF"/>
</linearGradient>
<linearGradient id="paint9_linear_1058_7962" x1="92.5687" y1="101.711" x2="108.853" y2="130.467" gradientUnits="userSpaceOnUse">
<stop stop-color="#EA5297"/>
<stop offset="0.505208" stop-color="#5BC5F2" stop-opacity="0.91"/>
<stop offset="0.828932" stop-color="#636AAF"/>
</linearGradient>
<linearGradient id="paint10_linear_1058_7962" x1="93.5599" y1="98.2684" x2="110.248" y2="123.557" gradientUnits="userSpaceOnUse">
<stop stop-color="#EA5297"/>
<stop offset="0.505208" stop-color="#5BC5F2" stop-opacity="0.91"/>
<stop offset="0.828932" stop-color="#636AAF"/>
</linearGradient>
<linearGradient id="paint11_linear_1058_7962" x1="92.2899" y1="97.0492" x2="108.315" y2="119.792" gradientUnits="userSpaceOnUse">
<stop stop-color="#EA5297"/>
<stop offset="0.505208" stop-color="#5BC5F2" stop-opacity="0.91"/>
<stop offset="0.828932" stop-color="#636AAF"/>
</linearGradient>
<linearGradient id="paint12_linear_1058_7962" x1="92.3846" y1="95.1945" x2="108.262" y2="115.489" gradientUnits="userSpaceOnUse">
<stop stop-color="#EA5297"/>
<stop offset="0.505208" stop-color="#5BC5F2" stop-opacity="0.91"/>
<stop offset="0.828932" stop-color="#636AAF"/>
</linearGradient>
<linearGradient id="paint13_linear_1058_7962" x1="92.1112" y1="93.5811" x2="107.497" y2="111.199" gradientUnits="userSpaceOnUse">
<stop stop-color="#EA5297"/>
<stop offset="0.505208" stop-color="#5BC5F2" stop-opacity="0.91"/>
<stop offset="0.828932" stop-color="#636AAF"/>
</linearGradient>
<linearGradient id="paint14_linear_1058_7962" x1="92.8573" y1="91.5502" x2="107.899" y2="107.234" gradientUnits="userSpaceOnUse">
<stop stop-color="#EA5297"/>
<stop offset="0.505208" stop-color="#5BC5F2" stop-opacity="0.91"/>
<stop offset="0.828932" stop-color="#636AAF"/>
</linearGradient>
<linearGradient id="paint15_linear_1058_7962" x1="92.0976" y1="90.2148" x2="106.188" y2="103.501" gradientUnits="userSpaceOnUse">
<stop stop-color="#EA5297"/>
<stop offset="0.505208" stop-color="#5BC5F2" stop-opacity="0.91"/>
<stop offset="0.828932" stop-color="#636AAF"/>
</linearGradient>
</defs>
</svg>
