<svg width="161" height="160" viewBox="0 0 161 160" fill="none" xmlns="http://www.w3.org/2000/svg">
<path fill-rule="evenodd" clip-rule="evenodd" d="M80.5039 68.5455V0H79.5039V0.000171047L79.4978 0.000171047L79.4978 68.5461L73.5237 0.261116L72.5275 0.348272L78.501 68.6264L66.5994 1.12863L65.6146 1.30227L77.5166 68.8019L59.7768 2.5963L58.8109 2.85512L76.5573 69.0857L53.1058 4.65325L52.1661 4.99527L75.6134 69.4162L46.6407 7.28399L45.7344 7.70661L74.7005 69.8246L40.4309 10.4679L39.5649 10.9679L73.8264 70.3106L34.5239 14.1809L33.7048 14.7545L73.0314 70.9186L28.9588 18.395L28.1927 19.0377L72.2402 71.5315L23.7866 23.0778L23.7847 23.0797L23.7828 23.0777L23.0757 23.7848L71.5277 72.2369L19.0394 28.194L18.3966 28.96L70.9209 73.0331L14.7535 33.7043L14.1799 34.5234L70.3276 73.8385L10.967 39.5666L10.467 40.4326L69.8319 74.707L7.70578 45.7371L7.28316 46.6434L69.3987 75.6083L4.99765 52.1683L4.65563 53.108L69.0735 76.5542L2.85649 58.8114L2.59767 59.7773L68.8096 77.5187L1.30277 65.6154L1.12912 66.6002L68.6372 78.5037L0.347552 72.5292L0.260396 73.5254L68.5477 79.4997H0.00171679V79.4999H0V80.4999H68.549L0.26111 86.4743L0.348265 87.4705L68.6382 81.4959L1.12997 93.3994L1.30362 94.3842L68.8073 82.4815L2.59715 100.222L2.85597 101.188L69.0636 83.4481L4.65321 106.892L4.99523 107.831L69.4059 84.3877L7.28283 113.356L7.70545 114.262L69.8316 85.2926L10.4668 119.567L10.9668 120.433L70.3542 86.1456L14.1839 125.476L14.7575 126.296L70.8934 86.9888L18.3954 131.04L19.0382 131.806L71.5479 87.745L23.0781 136.215L23.7852 136.922L23.7872 136.92L23.7894 136.922L72.2528 88.4588L28.1971 140.962L28.9631 141.605L73.0255 89.0936L33.7076 145.245L34.5268 145.819L73.8474 89.6632L39.5709 149.032L40.4369 149.532L74.7152 90.1601L45.7422 152.293L46.6485 152.716L75.6154 90.5958L52.1728 155.004L53.1125 155.346L76.5583 90.9292L58.8159 157.145L59.7818 157.403L77.5207 91.2011L65.6192 158.698L66.604 158.871L78.5078 91.3619L72.5332 159.652L73.5294 159.739L79.4978 91.5188L79.4978 160H80.4978V160H80.5039V91.5193L86.4724 159.739L87.4686 159.652L81.4934 91.3558L93.3982 158.871L94.383 158.698L82.4786 91.1841L100.222 157.403L101.188 157.144L83.4512 90.9502L106.889 155.346L107.829 155.004L84.3867 90.5966L113.353 152.716L114.26 152.293L85.2864 90.1599L119.565 149.532L120.431 149.032L86.1443 89.6459L125.477 145.819L126.296 145.245L86.9876 89.1067L131.039 141.605L131.805 140.962L87.7476 88.4568L136.213 136.922L136.214 136.92L136.216 136.922L136.924 136.215L88.4531 87.7443L140.964 131.806L141.606 131.04L89.109 86.9893L145.244 126.296L145.818 125.476L89.6629 86.1564L149.031 120.433L149.531 119.566L90.1672 85.2928L152.292 114.262L152.715 113.356L90.5791 84.3815L155.006 107.831L155.348 106.891L90.938 83.448L157.146 101.188L157.404 100.222L91.1917 82.4807L158.698 94.3839L158.872 93.3991L91.3667 81.4961L159.651 87.4703L159.739 86.4741L91.4534 80.4999H160V80.4997H160.002V79.4997H91.4547L159.739 73.5256L159.652 72.5294L91.3677 78.5035L158.873 66.6006L158.699 65.6158L91.1894 77.5195L157.404 59.7774L157.145 58.8115L90.9281 76.5543L155.346 53.1081L155.004 52.1684L90.5863 75.6145L152.715 46.6436L152.292 45.7373L90.1668 74.7067L149.531 40.433L149.031 39.5669L89.6894 73.8277L145.822 34.5234L145.248 33.7043L89.0815 73.0326L141.605 28.96L140.962 28.1939L88.4779 72.2336L136.926 23.7852L136.219 23.0781L136.217 23.0801L136.215 23.0778L87.7641 71.5287L131.809 19.0381L131.043 18.3953L86.9817 70.9055L126.299 14.7547L125.48 14.1811L86.1653 70.328L120.437 10.968L119.571 10.468L85.3011 69.8249L114.267 7.70657L113.361 7.28395L84.3887 69.4153L107.836 4.99537L106.896 4.65335L83.4521 69.0647L101.193 2.85547L100.227 2.59666L82.4827 68.819L94.3877 1.30228L93.4029 1.12863L81.5001 68.6325L87.4743 0.347926L86.4781 0.26077L80.5039 68.5455Z" fill="url(#paint0_linear_1058_7987)"/>
<defs>
<linearGradient id="paint0_linear_1058_7987" x1="72.9832" y1="52.0849" x2="91.1647" y2="171.077" gradientUnits="userSpaceOnUse">
<stop stop-color="#EA5297"/>
<stop offset="0.505208" stop-color="#5BC5F2" stop-opacity="0.91"/>
<stop offset="0.828932" stop-color="#636AAF"/>
</linearGradient>
</defs>
</svg>
