<svg width="162" height="160" viewBox="0 0 162 160" fill="none" xmlns="http://www.w3.org/2000/svg">
<path fill-rule="evenodd" clip-rule="evenodd" d="M160.198 47.3218C160.449 45.9643 160.577 44.5908 160.577 43.2047C160.577 41.1761 160.302 39.1743 159.77 37.2105C159.224 38.2249 158.549 39.2211 157.75 40.1965C158.773 42.5118 159.593 44.8903 160.198 47.3218ZM160.698 49.6033C161.277 47.5155 161.577 45.3789 161.577 43.2047C161.577 40.7005 161.179 38.246 160.415 35.8584C161.079 34.2641 161.424 32.6291 161.424 30.9633C161.424 15.347 131.088 2.43991 91.7189 0.387343C88.1687 0.131897 84.5454 0 80.8645 0C77.4465 0 74.0781 0.11373 70.7718 0.334508C30.8854 2.20752 0 15.2063 0 30.9633C0 32.7718 0.406835 34.5439 1.18742 36.267C0.50632 38.5257 0.152344 40.8431 0.152344 43.2047C0.152344 45.15 0.392511 47.0653 0.857838 48.9425C0.292676 51.6748 0 54.4699 0 57.3135C0 59.2381 0.134078 61.1405 0.395973 63.0163C0.234555 64.7822 0.152344 66.567 0.152344 68.368C0.152344 70.1718 0.234817 71.9593 0.396744 73.728C0.234817 75.7976 0.152344 77.8892 0.152344 80C0.152344 124.183 36.2884 160 80.8645 160C125.441 160 161.577 124.183 161.577 80C161.577 77.8892 161.494 75.7976 161.332 73.728C161.494 71.9593 161.577 70.1718 161.577 68.368C161.577 66.1073 161.447 63.8723 161.194 61.668C161.347 60.2306 161.424 58.7785 161.424 57.3135C161.424 54.6987 161.177 52.125 160.698 49.6033ZM160.567 67.3109C160.558 66.8359 160.544 66.3621 160.524 65.8895C160.488 66.0572 160.451 66.2248 160.414 66.3921C160.467 66.6978 160.518 67.0041 160.567 67.3109ZM159.787 68.8357C160.017 70.4479 160.198 72.0757 160.328 73.7177C157.105 108.298 122.904 135.736 80.8645 135.736C38.825 135.736 4.62417 108.298 1.40074 73.7177C1.51229 72.3127 1.66092 70.9181 1.84568 69.5347C9.74297 95.2593 42.0536 114.524 80.7122 114.524C119.72 114.524 152.265 94.9095 159.787 68.8357ZM159.908 63.7379C160.019 63.0539 160.112 62.3664 160.187 61.6756C159.898 59.2022 159.45 56.7671 158.852 54.3779C158.562 54.9595 158.249 55.5363 157.916 56.1079C158.702 58.601 159.368 61.1465 159.908 63.7379ZM157.22 57.2441C158.12 60.2146 158.848 63.2587 159.394 66.365C156.68 78.1615 148.742 88.7748 137.206 96.9517C122.788 107.172 102.817 113.524 80.7122 113.524C58.6068 113.524 38.6364 107.172 24.2183 96.9517C12.9249 88.9466 5.07996 78.6066 2.20871 67.1073C2.76592 63.7433 3.53754 60.4508 4.50922 57.2441C15.396 74.2136 45.4696 86.4095 80.8645 86.4095C116.259 86.4095 146.333 74.2136 157.22 57.2441ZM156.826 55.9824C155.622 52.2408 154.145 48.6202 152.418 45.1438C138.986 55.0529 111.917 61.8239 80.7122 61.8239C49.6792 61.8239 22.7369 55.1274 9.23015 45.3075C7.53752 48.7339 6.08782 52.2995 4.90325 55.9824C8.74912 62.3588 15.4156 68.1368 24.2643 72.8735C38.6985 80.6 58.7079 85.4095 80.8645 85.4095C103.021 85.4095 123.031 80.6 137.465 72.8735C146.313 68.1368 152.98 62.3588 156.826 55.9824ZM157.495 54.8137C156.31 51.2688 154.881 47.834 153.229 44.5285C153.786 44.0936 154.318 43.653 154.823 43.2069C156.309 46.3223 157.527 49.5518 158.454 52.8745C158.163 53.5263 157.843 54.1728 157.495 54.8137ZM152.767 43.6197C153.33 43.176 153.863 42.727 154.368 42.273C146.725 26.9227 132.543 14.4358 114.724 7.35857C131.131 14.8843 144.557 27.7102 152.767 43.6197ZM73.5952 1.32405C75.9395 1.1776 78.3132 1.10278 80.7122 1.10278C83.4733 1.10278 86.2012 1.2019 88.8891 1.39529C116.493 4.12976 139.944 20.8201 151.96 44.2381C148.201 47.0376 143.29 49.6094 137.427 51.851C122.962 57.3819 102.91 60.8239 80.7122 60.8239C58.5142 60.8239 38.4627 57.3819 23.9972 51.851C18.249 49.6531 13.4152 47.1377 9.68505 44.4014C21.7852 20.6842 45.5995 3.83207 73.5952 1.32405ZM47.0053 7.35858C29.1133 14.4648 14.888 27.0249 7.26805 42.4614C7.77501 42.9092 8.31064 43.3521 8.87419 43.7897C17.0761 27.8016 30.5399 14.9111 47.0053 7.35858ZM8.41521 44.6987C7.8568 44.2698 7.32373 43.8353 6.81675 43.3954C5.3712 46.4525 4.18321 49.6187 3.2751 52.8745C3.56595 53.5263 3.88567 54.1728 4.23365 54.8137C5.39862 51.3296 6.79868 47.9518 8.41521 44.6987ZM3.81326 56.1079C3.47952 55.5363 3.16737 54.9595 2.87732 54.3779C2.17329 57.1904 1.67719 60.0663 1.40305 62.9935C1.47738 63.5144 1.56181 64.0334 1.65624 64.5502C2.2232 61.6781 2.9452 58.861 3.81326 56.1079ZM1.18821 67.1489C1.18113 67.12 1.17409 67.091 1.16707 67.062C1.1652 67.145 1.16351 67.2279 1.16199 67.3109C1.17068 67.2569 1.17942 67.2029 1.18821 67.1489ZM1.15652 79.1829C7.27654 111.802 40.633 136.736 80.8645 136.736C121.096 136.736 154.452 111.802 160.572 79.1829C160.575 79.455 160.577 79.7273 160.577 80C160.577 123.622 124.897 159 80.8645 159C36.8323 159 1.15234 123.622 1.15234 80C1.15234 79.7273 1.15374 79.455 1.15652 79.1829ZM24.2183 17.6752C30.4521 13.2566 37.7238 9.56085 45.7573 6.78892C28.1691 13.9969 14.1374 26.4521 6.49592 41.7544C5.89773 41.1862 5.34721 40.6125 4.84494 40.0338C8.73914 31.5375 15.436 23.9003 24.2183 17.6752ZM4.39927 41.0385C4.90446 41.598 5.45056 42.1502 6.03619 42.6946C4.69225 45.5024 3.56218 48.403 2.66307 51.3818C2.35867 50.568 2.09897 49.7468 1.88517 48.919C2.45803 46.2273 3.30243 43.5955 4.39927 41.0385ZM159.066 51.3818C158.146 48.3332 156.984 45.3666 155.598 42.4975C156.105 42.017 156.581 41.5306 157.025 41.0385C158.208 43.7972 159.098 46.6429 159.67 49.557C159.493 50.1691 159.292 50.7775 159.066 51.3818ZM156.579 40.0338C156.135 40.5456 155.653 41.0534 155.134 41.557C147.718 26.8354 134.379 14.7669 117.654 7.49918C124.902 10.1802 131.49 13.6239 137.206 17.6752C145.988 23.9003 152.685 31.5375 156.579 40.0338ZM159.516 52.9488C159.859 54.2106 160.161 55.4857 160.421 56.7732C160.398 55.0546 160.265 53.3534 160.027 51.6731C159.868 52.1006 159.698 52.5259 159.516 52.9488ZM2.21346 52.9488C1.73072 54.7227 1.32948 56.523 1.01324 58.3468C1.00443 58.003 1 57.6586 1 57.3135C1 55.2053 1.16513 53.1227 1.48721 51.0719C1.70392 51.7024 1.9462 52.3282 2.21346 52.9488ZM1.41088 46.6073C1.994 44.424 2.75213 42.2845 3.67455 40.1965C2.97378 39.3409 2.36783 38.4692 1.86141 37.5833C1.39303 39.4275 1.15234 41.3043 1.15234 43.2047C1.15234 44.3481 1.23947 45.483 1.41088 46.6073ZM51.4178 3.98754C29.1836 10.1288 11.7363 23.0552 4.13969 39.1775C3.37428 38.1956 2.74635 37.2006 2.25862 36.1956C5.01746 27.5386 12.8138 19.6654 24.2643 13.536C31.9182 9.43893 41.1398 6.16205 51.4178 3.98754ZM109.035 3.72422C131.732 9.75397 149.578 22.821 157.285 39.1775C158.147 38.0709 158.835 36.9477 159.345 35.8122C156.48 27.3062 148.746 19.5748 137.465 13.536C129.495 9.27 119.826 5.89323 109.035 3.72422ZM137.427 10.0757C130.931 7.59193 123.309 5.52945 114.871 4.01075C137.648 9.68296 154.655 20.8765 159.891 34.3783C160.245 33.2488 160.424 32.1091 160.424 30.9633C160.424 27.0834 158.372 23.2731 154.411 19.6928C150.45 16.1125 144.663 12.8424 137.427 10.0757ZM23.9972 10.0757C30.7701 7.48605 38.7675 5.35436 47.6364 3.81949C24.2277 9.48734 6.77225 20.9594 1.6762 34.8065C1.22718 33.5371 1 32.2541 1 30.9633C1 27.0834 3.05277 23.2731 7.01336 19.6928C10.9739 16.1125 16.761 12.8424 23.9972 10.0757Z" fill="url(#paint0_linear_1058_8038)"/>
<path fill-rule="evenodd" clip-rule="evenodd" d="M160.198 47.3218C160.449 45.9643 160.577 44.5908 160.577 43.2047C160.577 41.1761 160.302 39.1743 159.77 37.2105C159.224 38.2249 158.549 39.2211 157.75 40.1965C158.773 42.5118 159.593 44.8903 160.198 47.3218ZM160.698 49.6033C161.277 47.5155 161.577 45.3789 161.577 43.2047C161.577 40.7005 161.179 38.246 160.415 35.8584C161.079 34.2641 161.424 32.6291 161.424 30.9633C161.424 15.347 131.088 2.43991 91.7189 0.387343C88.1687 0.131897 84.5454 0 80.8645 0C77.4465 0 74.0781 0.11373 70.7718 0.334508C30.8854 2.20752 0 15.2063 0 30.9633C0 32.7718 0.406835 34.5439 1.18742 36.267C0.50632 38.5257 0.152344 40.8431 0.152344 43.2047C0.152344 45.15 0.392511 47.0653 0.857838 48.9425C0.292676 51.6748 0 54.4699 0 57.3135C0 59.2381 0.134078 61.1405 0.395973 63.0163C0.234555 64.7822 0.152344 66.567 0.152344 68.368C0.152344 70.1718 0.234817 71.9593 0.396744 73.728C0.234817 75.7976 0.152344 77.8892 0.152344 80C0.152344 124.183 36.2884 160 80.8645 160C125.441 160 161.577 124.183 161.577 80C161.577 77.8892 161.494 75.7976 161.332 73.728C161.494 71.9593 161.577 70.1718 161.577 68.368C161.577 66.1073 161.447 63.8723 161.194 61.668C161.347 60.2306 161.424 58.7785 161.424 57.3135C161.424 54.6987 161.177 52.125 160.698 49.6033ZM160.567 67.3109C160.558 66.8359 160.544 66.3621 160.524 65.8895C160.488 66.0572 160.451 66.2248 160.414 66.3921C160.467 66.6978 160.518 67.0041 160.567 67.3109ZM159.787 68.8357C160.017 70.4479 160.198 72.0757 160.328 73.7177C157.105 108.298 122.904 135.736 80.8645 135.736C38.825 135.736 4.62417 108.298 1.40074 73.7177C1.51229 72.3127 1.66092 70.9181 1.84568 69.5347C9.74297 95.2593 42.0536 114.524 80.7122 114.524C119.72 114.524 152.265 94.9095 159.787 68.8357ZM159.908 63.7379C160.019 63.0539 160.112 62.3664 160.187 61.6756C159.898 59.2022 159.45 56.7671 158.852 54.3779C158.562 54.9595 158.249 55.5363 157.916 56.1079C158.702 58.601 159.368 61.1465 159.908 63.7379ZM157.22 57.2441C158.12 60.2146 158.848 63.2587 159.394 66.365C156.68 78.1615 148.742 88.7748 137.206 96.9517C122.788 107.172 102.817 113.524 80.7122 113.524C58.6068 113.524 38.6364 107.172 24.2183 96.9517C12.9249 88.9466 5.07996 78.6066 2.20871 67.1073C2.76592 63.7433 3.53754 60.4508 4.50922 57.2441C15.396 74.2136 45.4696 86.4095 80.8645 86.4095C116.259 86.4095 146.333 74.2136 157.22 57.2441ZM156.826 55.9824C155.622 52.2408 154.145 48.6202 152.418 45.1438C138.986 55.0529 111.917 61.8239 80.7122 61.8239C49.6792 61.8239 22.7369 55.1274 9.23015 45.3075C7.53752 48.7339 6.08782 52.2995 4.90325 55.9824C8.74912 62.3588 15.4156 68.1368 24.2643 72.8735C38.6985 80.6 58.7079 85.4095 80.8645 85.4095C103.021 85.4095 123.031 80.6 137.465 72.8735C146.313 68.1368 152.98 62.3588 156.826 55.9824ZM157.495 54.8137C156.31 51.2688 154.881 47.834 153.229 44.5285C153.786 44.0936 154.318 43.653 154.823 43.2069C156.309 46.3223 157.527 49.5518 158.454 52.8745C158.163 53.5263 157.843 54.1728 157.495 54.8137ZM152.767 43.6197C153.33 43.176 153.863 42.727 154.368 42.273C146.725 26.9227 132.543 14.4358 114.724 7.35857C131.131 14.8843 144.557 27.7102 152.767 43.6197ZM73.5952 1.32405C75.9395 1.1776 78.3132 1.10278 80.7122 1.10278C83.4733 1.10278 86.2012 1.2019 88.8891 1.39529C116.493 4.12976 139.944 20.8201 151.96 44.2381C148.201 47.0376 143.29 49.6094 137.427 51.851C122.962 57.3819 102.91 60.8239 80.7122 60.8239C58.5142 60.8239 38.4627 57.3819 23.9972 51.851C18.249 49.6531 13.4152 47.1377 9.68505 44.4014C21.7852 20.6842 45.5995 3.83207 73.5952 1.32405ZM47.0053 7.35858C29.1133 14.4648 14.888 27.0249 7.26805 42.4614C7.77501 42.9092 8.31064 43.3521 8.87419 43.7897C17.0761 27.8016 30.5399 14.9111 47.0053 7.35858ZM8.41521 44.6987C7.8568 44.2698 7.32373 43.8353 6.81675 43.3954C5.3712 46.4525 4.18321 49.6187 3.2751 52.8745C3.56595 53.5263 3.88567 54.1728 4.23365 54.8137C5.39862 51.3296 6.79868 47.9518 8.41521 44.6987ZM3.81326 56.1079C3.47952 55.5363 3.16737 54.9595 2.87732 54.3779C2.17329 57.1904 1.67719 60.0663 1.40305 62.9935C1.47738 63.5144 1.56181 64.0334 1.65624 64.5502C2.2232 61.6781 2.9452 58.861 3.81326 56.1079ZM1.18821 67.1489C1.18113 67.12 1.17409 67.091 1.16707 67.062C1.1652 67.145 1.16351 67.2279 1.16199 67.3109C1.17068 67.2569 1.17942 67.2029 1.18821 67.1489ZM1.15652 79.1829C7.27654 111.802 40.633 136.736 80.8645 136.736C121.096 136.736 154.452 111.802 160.572 79.1829C160.575 79.455 160.577 79.7273 160.577 80C160.577 123.622 124.897 159 80.8645 159C36.8323 159 1.15234 123.622 1.15234 80C1.15234 79.7273 1.15374 79.455 1.15652 79.1829ZM24.2183 17.6752C30.4521 13.2566 37.7238 9.56085 45.7573 6.78892C28.1691 13.9969 14.1374 26.4521 6.49592 41.7544C5.89773 41.1862 5.34721 40.6125 4.84494 40.0338C8.73914 31.5375 15.436 23.9003 24.2183 17.6752ZM4.39927 41.0385C4.90446 41.598 5.45056 42.1502 6.03619 42.6946C4.69225 45.5024 3.56218 48.403 2.66307 51.3818C2.35867 50.568 2.09897 49.7468 1.88517 48.919C2.45803 46.2273 3.30243 43.5955 4.39927 41.0385ZM159.066 51.3818C158.146 48.3332 156.984 45.3666 155.598 42.4975C156.105 42.017 156.581 41.5306 157.025 41.0385C158.208 43.7972 159.098 46.6429 159.67 49.557C159.493 50.1691 159.292 50.7775 159.066 51.3818ZM156.579 40.0338C156.135 40.5456 155.653 41.0534 155.134 41.557C147.718 26.8354 134.379 14.7669 117.654 7.49918C124.902 10.1802 131.49 13.6239 137.206 17.6752C145.988 23.9003 152.685 31.5375 156.579 40.0338ZM159.516 52.9488C159.859 54.2106 160.161 55.4857 160.421 56.7732C160.398 55.0546 160.265 53.3534 160.027 51.6731C159.868 52.1006 159.698 52.5259 159.516 52.9488ZM2.21346 52.9488C1.73072 54.7227 1.32948 56.523 1.01324 58.3468C1.00443 58.003 1 57.6586 1 57.3135C1 55.2053 1.16513 53.1227 1.48721 51.0719C1.70392 51.7024 1.9462 52.3282 2.21346 52.9488ZM1.41088 46.6073C1.994 44.424 2.75213 42.2845 3.67455 40.1965C2.97378 39.3409 2.36783 38.4692 1.86141 37.5833C1.39303 39.4275 1.15234 41.3043 1.15234 43.2047C1.15234 44.3481 1.23947 45.483 1.41088 46.6073ZM51.4178 3.98754C29.1836 10.1288 11.7363 23.0552 4.13969 39.1775C3.37428 38.1956 2.74635 37.2006 2.25862 36.1956C5.01746 27.5386 12.8138 19.6654 24.2643 13.536C31.9182 9.43893 41.1398 6.16205 51.4178 3.98754ZM109.035 3.72422C131.732 9.75397 149.578 22.821 157.285 39.1775C158.147 38.0709 158.835 36.9477 159.345 35.8122C156.48 27.3062 148.746 19.5748 137.465 13.536C129.495 9.27 119.826 5.89323 109.035 3.72422ZM137.427 10.0757C130.931 7.59193 123.309 5.52945 114.871 4.01075C137.648 9.68296 154.655 20.8765 159.891 34.3783C160.245 33.2488 160.424 32.1091 160.424 30.9633C160.424 27.0834 158.372 23.2731 154.411 19.6928C150.45 16.1125 144.663 12.8424 137.427 10.0757ZM23.9972 10.0757C30.7701 7.48605 38.7675 5.35436 47.6364 3.81949C24.2277 9.48734 6.77225 20.9594 1.6762 34.8065C1.22718 33.5371 1 32.2541 1 30.9633C1 27.0834 3.05277 23.2731 7.01336 19.6928C10.9739 16.1125 16.761 12.8424 23.9972 10.0757Z" fill="url(#paint1_linear_1058_8038)"/>
<defs>
<linearGradient id="paint0_linear_1058_8038" x1="80.8744" y1="128.93" x2="86.5806" y2="195.566" gradientUnits="userSpaceOnUse">
<stop stop-color="#EA5297"/>
<stop offset="0.505208" stop-color="#5BC5F2" stop-opacity="0.91"/>
<stop offset="0.828932" stop-color="#636AAF"/>
</linearGradient>
<linearGradient id="paint1_linear_1058_8038" x1="73.7016" y1="52.0849" x2="91.7138" y2="171.13" gradientUnits="userSpaceOnUse">
<stop stop-color="#EA5297"/>
<stop offset="0.505208" stop-color="#5BC5F2" stop-opacity="0.91"/>
<stop offset="0.828932" stop-color="#636AAF"/>
</linearGradient>
</defs>
</svg>
