<svg width="162" height="162" viewBox="0 0 162 162" fill="none" xmlns="http://www.w3.org/2000/svg">
<path fill-rule="evenodd" clip-rule="evenodd" d="M159.671 82.8934C159.781 82.7904 159.884 82.6888 159.979 82.5885C159.993 81.9648 160 81.3393 160 80.7122L160 80.5H156C156 82.1185 155.956 83.7258 155.869 85.3207C157.545 84.5135 158.812 83.6973 159.671 82.8934ZM159.967 78.3997C159.978 78.7659 159.986 79.1326 159.991 79.5H155.994C155.98 78.219 155.938 76.9452 155.869 75.6793C157.545 76.4865 158.812 77.3027 159.671 78.1066C159.777 78.2056 159.876 78.3033 159.967 78.3997ZM154.84 75.2077C154.926 76.6284 154.978 78.0595 154.994 79.5H141.99C141.951 76.7061 141.805 73.9468 141.557 71.2289C147.037 72.4178 151.533 73.7616 154.84 75.2077ZM140.533 71.0108C140.795 73.7981 140.95 76.6303 140.99 79.5H121.997C121.973 75.6216 121.809 71.8093 121.515 68.0814C127.591 68.7567 133.159 69.5789 138.088 70.522C138.922 70.6816 139.737 70.8446 140.533 71.0108ZM140.999 80.5H122C122 84.7234 121.834 88.8708 121.515 92.9186C127.591 92.2433 133.159 91.4211 138.088 90.478C138.954 90.3123 139.799 90.1429 140.624 89.9702C140.872 87.026 141 84.033 141 81C141 80.8332 141 80.6665 140.999 80.5ZM120.503 67.9708C120.805 71.7317 120.972 75.5812 120.997 79.5L95.9974 79.5C95.9817 74.9857 95.8954 70.5617 95.7439 66.2568C104.591 66.5689 112.928 67.1566 120.503 67.9708ZM121 80.5L95.9997 80.5L96 81C96 85.6842 95.9239 90.2755 95.7779 94.742C104.612 94.4296 112.938 93.8423 120.503 93.0292C120.83 88.9489 121 84.7643 121 80.5ZM94.742 66.2227C94.8946 70.5369 94.9816 74.9724 94.9974 79.5L80.5 79.5V66.0003L81 66C85.6856 66 90.277 66.0763 94.742 66.2227ZM94.9997 80.5L80.5 80.5V94.9997L81 95C85.6976 95 90.3004 94.9233 94.7762 94.7762C94.9233 90.3004 95 85.6976 95 81L94.9997 80.5ZM79.5 66.0026V79.5H66.0026C66.0183 74.9844 66.1049 70.5603 66.2568 66.2568C70.5603 66.1049 74.9844 66.0183 79.5 66.0026ZM79.5 80.5H66.0003L66 81C66 85.6856 66.0763 90.277 66.2227 94.742C70.5369 94.8946 74.9725 94.9816 79.5 94.9974V80.5ZM65.2549 66.2934C65.1042 70.5868 65.0183 74.9985 65.0026 79.5H41.0031C41.0276 75.5812 41.1955 71.7317 41.4968 67.9708C48.7856 67.1874 56.7799 66.6137 65.2549 66.2934ZM65.0003 80.5L41 80.5C41 84.7643 41.1699 88.9489 41.4968 93.0292C48.7758 93.8116 56.7585 94.3848 65.221 94.7054C65.0757 90.2504 65 85.6714 65 81L65.0003 80.5ZM40.4849 68.0814C40.1909 71.8093 40.0272 75.6216 40.0031 79.5H20.0104C20.0493 76.7048 20.1967 73.9451 20.4472 71.2279C21.5621 70.9861 22.7177 70.7506 23.9123 70.522C28.8407 69.5789 34.4095 68.7567 40.4849 68.0814ZM40 80.5L20.0012 80.5C20.0004 80.6665 20 80.8332 20 81C20 83.9583 20.1215 86.8786 20.3582 89.7527C21.5006 90.0014 22.6859 90.2433 23.9123 90.478C28.8407 91.4211 34.4095 92.2433 40.4849 92.9186C40.1657 88.8708 40 84.7234 40 80.5ZM19.4226 71.4546C19.1868 74.0995 19.0478 76.7834 19.0103 79.5H8.0057C8.02375 77.9139 8.0847 76.3392 8.18733 74.7771C11.1535 73.5839 14.9387 72.4661 19.4226 71.4546ZM19.0012 80.5L8.00001 80.5C8.00001 82.4246 8.06316 84.333 8.18733 86.2229C11.1346 87.4084 14.8903 88.5196 19.3366 89.526C19.1141 86.724 19 83.8796 19 81C19 80.8332 19.0004 80.6665 19.0012 80.5ZM7.1584 75.2084C7.07307 76.6292 7.02186 78.0601 7.00564 79.5H2.05579C2.08716 79.0788 2.13169 78.6589 2.18921 78.2404C2.23422 78.1961 2.28069 78.1515 2.32866 78.1066C3.29556 77.2024 4.77731 76.2828 6.77758 75.3778C6.90271 75.3212 7.02965 75.2647 7.1584 75.2084ZM7.00001 80.5L2.00722 80.5C2.00423 80.7072 2.00216 80.9145 2.00103 81.1221L2.002 81.2842C2.00836 81.736 2.02987 82.1865 2.06634 82.6355C2.14832 82.7205 2.23569 82.8065 2.32866 82.8934C3.29556 83.7976 4.77731 84.7172 6.77758 85.6222C6.90271 85.6788 7.02965 85.7353 7.1584 85.7916C7.05335 84.0424 7.00001 82.2779 7.00001 80.5ZM155 80.5H141.999C142 80.6665 142 80.8332 142 81C142 83.957 141.88 86.877 141.645 89.752C147.085 88.5678 151.55 87.2307 154.84 85.7923C154.946 84.0433 155 82.2785 155 80.5ZM162 80.7147C162 80.6432 162 80.5716 162 80.5C162 79.9491 161.99 79.3998 161.971 78.8524C161.402 57.415 152.323 38.0785 137.961 24.0388C125.078 10.86 107.735 2.13033 88.4019 0.340866C86.1293 0.11528 83.8271 0 81.5 0C81.4201 0 81.3404 0.00012207 81.2606 0.000396729C81.1738 0.00012207 81.0869 -1.52588e-05 81 -1.52588e-05C80.9049 -1.52588e-05 80.8098 0.000152588 80.7147 0.000488281C80.6432 0.000167847 80.5716 0 80.5 0C79.9491 0 79.3998 0.00953674 78.8524 0.0285034C49.2107 0.81665 23.5858 17.8716 10.4259 42.6696C6.09023 50.5275 3.04624 59.1856 1.5769 68.3634C0.542589 72.287 0 76.3454 0 80.5C0 84.163 0.421767 87.7511 1.23044 91.238C3.55681 109.289 11.9523 125.459 24.3245 137.676C35.9975 149.497 51.2802 157.688 68.3635 160.423C72.287 161.457 76.3454 162 80.5 162C84.163 162 87.7511 161.578 91.238 160.77C101.307 159.472 110.791 156.286 119.33 151.574C142.651 139.198 159.123 115.799 161.659 88.402C161.885 86.1293 162 83.8271 162 81.5C162 81.4201 162 81.3403 162 81.2605C162 81.1737 162 81.0869 162 81C162 80.9049 162 80.8098 162 80.7147ZM123.256 13.8226C128.33 16.9429 133.024 20.6121 137.254 24.7464C142.935 30.5591 147.738 37.2481 151.445 44.5945C148.04 39.0799 143.896 34.0067 139.137 29.4907C134.576 23.48 129.225 18.1956 123.256 13.8226ZM111.058 7.69325C119.929 11.9134 127.887 17.9755 134.514 25.4349C128.574 20.6207 121.863 16.6018 114.574 13.5581C110.141 9.66531 105.302 6.51048 100.16 4.2269C103.903 5.1274 107.542 6.28975 111.058 7.69325ZM91.4439 2.6351C92.2938 2.74219 93.1394 2.86255 93.9807 2.99594C100.283 4.89458 106.22 8.09775 111.618 12.3893C107.81 10.9669 103.859 9.80606 99.7884 8.93098C97.1599 6.26541 94.3656 4.14169 91.4439 2.6351ZM83.9754 2.04405C85.383 2.09026 86.7813 2.17262 88.1695 2.29025C91.5932 3.53543 94.8865 5.65921 97.9809 8.56271C94.3644 7.86639 90.659 7.39462 86.8825 7.16389C85.9582 4.97867 84.9856 3.25343 83.9754 2.04405ZM80.5 2.00378C80.7623 2.00127 81.0249 2 81.2878 2C81.7182 2 82.1478 2.00339 82.5765 2.01012C82.6806 2.10808 82.7863 2.21411 82.8934 2.32866C83.7976 3.29556 84.7172 4.77731 85.6222 6.77757C85.6707 6.88469 85.719 6.99312 85.7673 7.10287C84.3542 7.03458 82.9314 7 81.5 7C81.1662 7 80.8329 7.00188 80.5 7.00563V2.00378ZM78.3798 2.05159C78.7526 2.03835 79.126 2.02763 79.5 2.01947V7.02254C78.0498 7.05527 76.609 7.12349 75.1788 7.2263C75.2449 7.07423 75.3113 6.92465 75.3778 6.77757C76.2828 4.77731 77.2024 3.29556 78.1066 2.32866C78.1988 2.2301 78.2899 2.13783 78.3798 2.05159ZM73.646 2.35829C74.7465 2.25456 75.8535 2.17302 76.9666 2.11409C75.9541 3.34776 74.9797 5.10004 74.0543 7.31444C70.55 7.61186 67.1107 8.11716 63.7509 8.81685C66.8675 5.83595 70.1894 3.64903 73.646 2.35829ZM65.0184 3.64662C66.7793 3.28474 68.5614 2.98045 70.3628 2.73578C67.4079 4.29004 64.5847 6.47626 61.933 9.21614C56.917 10.3754 52.0874 11.97 47.4936 13.9543C52.8221 9.35622 58.7237 5.84576 65.0184 3.64662ZM54.0623 6.72757C55.6182 6.16728 57.1966 5.65363 58.796 5.18834C53.671 7.73479 48.8721 11.1569 44.5045 15.3161C38.7197 18.0913 33.3449 21.497 28.4864 25.4349C35.6365 17.386 44.3368 10.9641 54.0623 6.72757ZM25.0316 136.969C19.0441 130.905 14.0183 123.873 10.2046 116.126C15.2229 124.957 22.1009 132.743 30.3569 139.035C36.8326 145.644 44.4044 151.011 52.7466 154.786C42.2623 150.8 32.8441 144.682 25.0316 136.969ZM11.2894 43.1755C18.3971 30.2832 29.0254 19.5695 41.8946 12.3052C35.0559 16.9522 28.9655 22.7669 23.863 29.4906C16.0907 36.8666 9.95762 45.7289 6.0086 55.5734C7.42616 51.2658 9.19806 47.1215 11.2894 43.1755ZM142.709 34.5963C148.54 41.0958 153.183 48.5373 156.332 56.6338C156.638 57.6095 156.926 58.5934 157.196 59.585C155.21 55.4151 152.647 51.4547 149.58 47.7595C147.668 43.124 145.362 38.7197 142.709 34.5963ZM116.829 15.6358C124.892 19.3399 132.175 24.2719 138.395 30.1653C141.903 34.7978 144.938 39.8673 147.418 45.2879C142.297 39.73 135.997 34.8446 128.793 30.8411C125.345 25.0913 121.319 19.972 116.829 15.6358ZM101.017 10.2298C105.522 11.2806 109.873 12.6867 114.033 14.4137C117.324 17.3188 120.391 20.6418 123.191 24.3291C124.537 26.1019 125.82 27.9583 127.036 29.8918C121.682 27.0787 115.86 24.7428 109.676 22.9652C107.098 18.0106 104.188 13.7187 101.017 10.2298ZM87.3007 8.19247C91.3899 8.46484 95.3925 9.02289 99.2854 9.84503C102.582 13.2346 105.632 17.5264 108.349 22.5938C102.688 21.0523 96.7353 19.9758 90.5709 19.4248C89.581 14.9992 88.4831 11.2142 87.3007 8.19247ZM80.5 8.00569C80.8328 8.00191 81.1662 8 81.5 8C83.0774 8 84.6438 8.04242 86.1982 8.12608C87.393 11.0825 88.5126 14.8595 89.526 19.3366C86.724 19.1141 83.8796 19 81 19C80.8332 19 80.6665 19.0004 80.5 19.0011V8.00569ZM74.7475 8.26114C76.319 8.13905 77.9036 8.05919 79.5 8.02278V19.0103C76.7834 19.0478 74.0995 19.1868 71.4546 19.4225C72.4578 14.9758 73.5654 11.2162 74.7475 8.26114ZM62.4468 10.123C66.0838 9.29623 69.82 8.70082 73.6362 8.35469C72.4693 11.3713 71.3856 15.1331 70.4077 19.5211C64.6067 20.0963 58.9988 21.1376 53.6511 22.5938C56.2944 17.6639 59.2532 13.4681 62.4468 10.123ZM45.0839 16.1449C50.0118 13.793 55.2409 11.9033 60.7048 10.5385C57.6423 13.9707 54.8269 18.1557 52.3241 22.9652C45.5574 24.9104 39.2234 27.5241 33.462 30.7C34.8253 28.4743 36.2768 26.3475 37.8094 24.3291C40.0678 21.3546 42.5002 18.6171 45.0839 16.1449ZM24.605 30.1652C29.8014 25.2417 35.7399 20.9891 42.2552 17.563C38.3147 21.6895 34.7675 26.4394 31.6995 31.6995C26.0054 35.0206 20.9091 38.9033 16.5544 43.2385C18.8411 38.5858 21.5425 34.209 24.605 30.1652ZM7.45978 54.6853C10.5744 47.3415 14.9307 40.5708 20.2915 34.5962C18.0741 38.0419 16.0995 41.6836 14.3945 45.4926C11.7514 48.386 9.42699 51.46 7.45978 54.6853ZM2.52407 73.0194C2.99819 69.2078 3.788 65.4839 4.86885 61.871C6.90023 57.1237 9.68873 52.6281 13.1318 48.4668C11.2053 53.2609 9.69803 58.2973 8.65998 63.5219C5.89313 66.5078 3.81321 69.6913 2.52407 73.0194ZM3.3781 95.1912C3.05553 93.6094 2.78781 92.0099 2.57683 90.3944C2.50552 89.8001 2.44069 89.2039 2.38242 88.6057C3.69721 92.1756 5.92044 95.5824 8.9252 98.7615C9.94842 103.528 11.3635 108.133 13.1318 112.533C8.74989 107.237 5.42821 101.4 3.3781 95.1912ZM25.7435 133.892C16.2401 125.244 9.08176 114.404 5.22068 102.269C7.57256 106.986 10.6666 111.426 14.3945 115.507C17.3925 122.205 21.2241 128.386 25.7435 133.892ZM36.1362 143.053C41.7255 147.801 47.9655 151.69 54.6853 154.54C51.9197 152.853 49.2654 150.904 46.7407 148.716C43.0405 147.074 39.4969 145.178 36.1362 143.053ZM44.2733 146.463C39.5548 144.146 35.1197 141.404 31.0275 138.29C25.2342 132.371 20.3292 125.442 16.5544 117.761C20.6891 121.878 25.4924 125.586 30.8411 128.793C34.5992 135.555 39.1343 141.521 44.2733 146.463ZM49.9605 150.065C53.6974 152.962 57.6864 155.341 61.871 157.131C65.4839 158.212 69.2078 159.002 73.0194 159.476C70.1186 158.352 67.3278 156.628 64.6818 154.372C59.5792 153.368 54.6554 151.917 49.9605 150.065ZM63.2086 153.047C57.6526 151.838 52.323 150.09 47.2873 147.867C43.8747 144.896 40.6995 141.477 37.8094 137.671C35.9354 135.203 34.1826 132.573 32.564 129.798C38.563 133.201 45.204 135.988 52.3241 138.035C55.4949 144.128 59.1674 149.219 63.2086 153.047ZM66.7423 154.751C69.9061 157.167 73.2447 158.794 76.6921 159.538C75.9403 158.545 75.2103 157.266 74.5068 155.723C71.8805 155.514 69.2904 155.188 66.7423 154.751ZM74.0528 154.682C71.027 154.422 68.0508 154.006 65.1339 153.442C60.9048 149.785 57.0215 144.692 53.6511 138.406C58.9301 139.844 64.4627 140.877 70.1842 141.456C71.333 146.814 72.6355 151.29 74.0528 154.682ZM75.6494 155.806C76.4663 157.514 77.2927 158.801 78.1066 159.671C78.1515 159.719 78.1961 159.766 78.2404 159.811C78.6589 159.868 79.0788 159.913 79.5 159.944V155.977C78.2087 155.948 76.9249 155.891 75.6494 155.806ZM79.5 154.977C78.0492 154.944 76.6081 154.875 75.1777 154.771C73.743 151.471 72.4096 146.999 71.2289 141.557C73.9468 141.805 76.7061 141.951 79.5 141.99V154.977ZM80.5 155.994V159.993C80.7249 159.996 80.95 159.998 81.1753 159.999C81.6637 159.995 82.1505 159.973 82.6355 159.934C82.7205 159.852 82.8065 159.764 82.8934 159.671C83.6893 158.82 84.4972 157.57 85.2966 155.919C84.0384 155.973 82.7726 156 81.5 156C81.1662 156 80.8329 155.998 80.5 155.994ZM85.7677 154.896C84.3548 154.965 82.9319 155 81.5 155C81.1662 155 80.8328 154.998 80.5 154.994V141.999C80.6666 142 80.8332 142 81 142C83.957 142 86.877 141.88 89.752 141.645C88.561 147.116 87.2154 151.601 85.7677 154.896ZM86.4291 155.863C85.6927 157.457 84.9277 158.764 84.1392 159.755C87.9 159.166 91.5419 157.527 94.9808 154.96C92.1768 155.397 89.3236 155.701 86.4291 155.863ZM96.5895 153.679C93.4177 154.242 90.1783 154.631 86.8832 154.834C88.3166 151.445 89.6338 146.949 90.7947 141.555C96.8794 140.998 102.756 139.929 108.349 138.406C104.905 144.829 100.926 150.006 96.5895 153.679ZM97.03 154.615C94.338 156.862 91.4984 158.561 88.5478 159.639C90.7929 159.408 93.0089 159.067 95.1912 158.622C100.086 157.006 104.749 154.599 109.099 151.506C105.207 152.821 101.176 153.865 97.03 154.615ZM111.776 149.484C107.526 151.104 103.089 152.393 98.5038 153.316C102.658 149.459 106.43 144.272 109.676 138.035C116.213 136.156 122.346 133.653 127.949 130.622C126.467 133.094 124.878 135.448 123.191 137.671C119.761 142.188 115.929 146.159 111.776 149.484ZM112.283 150.359C109.12 152.879 105.771 155.033 102.269 156.779C111.31 153.903 119.632 149.196 126.864 143.053C122.317 145.929 117.434 148.384 112.283 150.359ZM131.973 138.29C126.75 142.263 120.97 145.633 114.754 148.283C120.481 143.216 125.525 136.914 129.667 129.667C136.507 125.757 142.505 121.044 147.418 115.712C143.529 124.212 138.277 131.849 131.973 138.29ZM132.643 139.035C137.529 135.311 141.932 131.064 145.753 126.387C138.774 136.442 129.554 144.795 118.824 150.711C116.799 151.784 114.721 152.774 112.595 153.674C120.016 149.987 126.779 145.02 132.643 139.035ZM137.256 133.892C142.282 127.77 146.456 120.814 149.58 113.24C152.781 109.383 155.434 105.237 157.454 100.864C156.257 105.5 154.657 109.972 152.694 114.239C148.743 121.568 143.507 128.204 137.256 133.892ZM137.671 37.8094C135.203 35.9354 132.573 34.1826 129.798 32.564C133.106 38.3945 135.831 44.8315 137.861 51.7255C143.946 54.7649 149.088 58.2926 153.041 62.1842C151.991 57.3663 150.536 52.7188 148.718 48.2857C145.555 44.4926 141.846 40.9795 137.671 37.8094ZM128.073 31.5854C122.63 28.5834 116.665 26.087 110.3 24.1897C113.246 30.0985 115.732 36.8948 117.645 44.3553C124.616 46.1426 131.008 48.4308 136.638 51.1272C134.481 44.0539 131.583 37.4842 128.073 31.5854ZM108.986 23.8083C103.211 22.1759 97.1185 21.0336 90.7956 20.4493C92.0318 26.1937 93.0909 32.9563 93.9248 40.4854C101.912 41.1156 109.511 42.3439 116.54 44.0774C114.596 36.6321 112.076 29.8741 109.1 24.0318L109.058 23.9488L108.986 23.8083ZM81 20C80.8332 20 80.6665 20.0004 80.5 20.0012V40.0031C80.8329 40.001 81.1662 40 81.5 40C85.3733 40 89.1828 40.1393 92.9101 40.4087C92.2364 34.3629 91.4171 28.82 90.478 23.9123C90.2433 22.6859 90.0014 21.5006 89.7527 20.3582C86.8786 20.1215 83.9583 20 81 20ZM79.5 20.0104C76.7048 20.0493 73.9452 20.1967 71.2279 20.4472C70.9861 21.5621 70.7506 22.7177 70.522 23.9123C69.5747 28.8631 68.7493 34.4601 68.0722 40.5678C71.8008 40.249 75.6163 40.0606 79.5 40.0124V20.0104ZM70.183 20.5488C64.2251 21.1582 58.4773 22.264 53.014 23.8083L52.9648 23.9042L52.8997 24.0318C49.8883 29.9443 47.3437 36.7948 45.3902 44.3463C52.1261 42.6216 59.4028 41.3643 67.0562 40.6581C67.8881 33.1032 68.9466 26.3157 70.183 20.5488ZM51.7003 24.1897C44.7461 26.2624 38.2706 29.0502 32.431 32.431C28.9534 38.4378 26.1032 45.1175 24.0134 52.299C29.9119 49.2347 36.7475 46.6399 44.2839 44.6351C46.2059 37.0646 48.7174 30.1723 51.7003 24.1897ZM24.3291 37.8094C20.9856 40.3479 17.9416 43.1063 15.2372 46.0524C12.9679 51.1498 11.1865 56.5504 9.95883 62.1841C13.3924 58.8045 17.722 55.6993 22.7875 52.9499C24.7501 45.9477 27.4264 39.4007 30.7001 33.4619C28.4743 34.8253 26.3475 36.2768 24.3291 37.8094ZM24.3291 123.191C26.1019 124.537 27.9582 125.82 29.8918 127.036C26.984 121.502 24.5861 115.467 22.7875 109.05C17.8636 106.378 13.635 103.369 10.2488 100.099C11.4606 105.27 13.1407 110.238 15.2372 114.948C17.9416 117.894 20.9856 120.652 24.3291 123.191ZM31.5854 128.073C37.6432 131.678 44.4086 134.637 51.7003 136.81C48.859 131.112 46.4454 124.588 44.5616 117.438C36.9154 115.424 29.9843 112.803 24.0134 109.701C25.9313 116.292 28.4895 122.459 31.5854 128.073ZM53.014 137.192C58.4115 138.717 64.0867 139.815 69.9679 140.429C68.8235 134.888 67.8395 128.455 67.0562 121.342C59.5096 120.646 52.3294 119.413 45.6728 117.726C47.5867 124.854 50.0315 131.337 52.8997 136.968C52.9377 137.043 52.9758 137.117 53.014 137.192ZM71.0108 140.533C73.7981 140.795 76.6303 140.95 79.5 140.99V121.988C75.6163 121.939 71.8008 121.751 68.0722 121.432C68.7493 127.54 69.5747 133.137 70.522 138.088C70.6817 138.922 70.8446 139.737 71.0108 140.533ZM81 141C84.033 141 87.026 140.872 89.9702 140.624C90.1429 139.799 90.3123 138.954 90.478 138.088C91.4171 133.18 92.2364 127.637 92.9101 121.591C89.1828 121.861 85.3733 122 81.5 122C81.1662 122 80.8329 121.999 80.5 121.997V140.999C80.6666 141 80.8332 141 81 141ZM91.0111 140.531C97.2569 139.94 103.277 138.806 108.986 137.192L109.037 137.093L109.1 136.968C111.933 131.407 114.352 125.016 116.255 117.992C109.306 119.689 101.804 120.893 93.9248 121.515C93.1398 128.603 92.1552 135.011 91.0111 140.531ZM110.3 136.81C117.003 134.813 123.261 132.15 128.933 128.933C132.059 123.423 134.66 117.359 136.638 110.873C130.933 113.605 124.445 115.918 117.365 117.716C115.492 124.757 113.104 131.186 110.3 136.81ZM137.671 123.191C141.846 120.02 145.555 116.507 148.718 112.714C150.375 108.676 151.729 104.46 152.751 100.099C148.837 103.878 143.798 107.309 137.861 110.275C136.002 116.587 133.56 122.517 130.622 127.949C133.094 126.467 135.448 124.878 137.671 123.191ZM159.365 70.5561C159.164 68.958 158.915 67.3747 158.622 65.8076C156.889 60.5602 154.247 55.578 150.826 50.9637C152.3 55.0003 153.481 59.1966 154.34 63.5219C156.417 65.7628 158.106 68.115 159.365 70.5561ZM150.825 110.036C154.364 105.264 157.068 100.099 158.796 94.6536C158.971 93.6544 159.127 92.6488 159.264 91.6372C157.962 94.1121 156.217 96.4947 154.075 98.7615C153.243 102.634 152.153 106.4 150.825 110.036ZM138.237 53.0372C144.481 56.2478 149.614 59.9516 153.415 63.9956C154.058 67.2884 154.512 70.6568 154.765 74.0874C151.363 72.6567 146.857 71.3423 141.456 70.1841C140.854 64.2404 139.763 58.5006 138.237 53.0372ZM117.923 45.4601C124.97 47.3003 131.402 49.6564 137.024 52.4265C138.637 57.9992 139.793 63.8729 140.429 69.9679C134.911 68.8283 128.509 67.8477 121.432 67.0661C120.78 59.4478 119.583 52.1925 117.923 45.4601ZM94.035 41.4973C102.101 42.1438 109.76 43.404 116.822 45.1782C118.522 51.9446 119.75 59.2595 120.418 66.956C112.847 66.1473 104.527 65.5644 95.7074 65.2549C95.3882 56.7876 94.8165 48.7941 94.035 41.4973ZM80.5 41.0031C80.8328 41.001 81.1662 41 81.5 41C85.4138 41 89.2604 41.1431 93.0209 41.4194C93.8075 48.7192 94.3837 56.7285 94.7054 65.221C90.2504 65.0757 85.6714 65 81 65L80.5 65.0003L80.5 41.0031ZM67.9618 41.581C71.7232 41.2544 75.5758 41.0615 79.5 41.0125L79.5 65.0026C74.9985 65.0182 70.5868 65.1042 66.2934 65.2549C66.6124 56.8125 67.183 48.8471 67.9618 41.581ZM45.1098 45.4517C51.8784 43.6862 59.2144 42.3965 66.9463 41.6726C66.1733 48.9326 65.6077 56.8783 65.2913 65.2913C56.8431 65.609 48.8661 66.178 41.5815 66.956C42.2411 59.3631 43.4452 52.1416 45.1098 45.4517ZM23.6369 53.628C24.0956 53.3825 24.5605 53.1397 25.0317 52.8997C30.593 50.0673 36.9839 47.6478 44.0076 45.7447C42.3834 52.3968 41.211 59.555 40.5684 67.0661C33.0494 67.8965 26.2928 68.9514 20.5488 70.183C21.1355 64.4478 22.182 58.9074 23.6369 53.628ZM9.58482 63.9956C12.8994 60.469 17.2271 57.2012 22.4212 54.2935C21.0551 59.4473 20.0734 64.8386 19.5211 70.4076C15.0906 71.395 11.2985 72.4903 8.26719 73.6701C8.52549 70.3836 8.96848 67.1547 9.58482 63.9956ZM2.46249 76.6921C3.30959 72.765 5.30334 68.9792 8.30291 65.4321C7.80599 68.2678 7.44671 71.156 7.23286 74.0884C5.25676 74.9196 3.65305 75.7901 2.46249 76.6921ZM2.245 84.1392C3.45486 85.1014 5.13377 86.0286 7.23286 86.9116C7.47879 90.2839 7.91706 93.5978 8.53581 96.8405C5.10478 92.8655 2.94108 88.5855 2.245 84.1392ZM22.4212 107.706C17.3609 104.874 13.1231 101.699 9.84317 98.2766C9.09111 94.7137 8.56027 91.0589 8.26719 87.3299C11.2765 88.5011 15.0356 89.5891 19.4248 90.5709C19.955 96.5026 20.9718 102.238 22.4212 107.706ZM44.2743 116.327C37.1457 114.413 30.6633 111.969 25.0317 109.1C24.5605 108.86 24.0956 108.618 23.6369 108.372C22.0958 102.78 21.0129 96.8948 20.4493 90.7956C26.2148 92.0364 33.006 93.0987 40.5684 93.9339C41.2457 101.85 42.5115 109.374 44.2743 116.327ZM66.9463 120.327C59.3176 119.613 52.0743 118.348 45.3812 116.619C43.5758 109.631 42.2764 102.044 41.5815 94.044C48.8556 94.8209 56.8202 95.3894 65.2549 95.7074C65.5632 104.491 66.1427 112.78 66.9463 120.327ZM79.5 120.988C75.5758 120.938 71.7232 120.746 67.9618 120.419C67.1523 112.866 66.5677 104.558 66.2568 95.7439C70.5617 95.8954 74.9858 95.9817 79.5 95.9974V120.988ZM93.0209 120.581C89.2604 120.857 85.4138 121 81.5 121C81.1662 121 80.8328 120.999 80.5 120.997V95.9997L81 96C85.6842 96 90.2755 95.9239 94.742 95.7778C94.4285 104.642 93.8383 112.995 93.0209 120.581ZM116.548 116.89C109.563 118.628 101.997 119.864 94.035 120.503C94.8472 112.919 95.4328 104.582 95.7439 95.7438C104.55 95.434 112.857 94.8515 120.418 94.044C119.715 102.147 118.39 109.828 116.548 116.89ZM137.024 109.574C131.33 112.379 124.806 114.759 117.654 116.61C119.454 109.578 120.745 101.957 121.432 93.9339C128.553 93.1475 134.99 92.1596 140.531 91.0111C139.92 97.4715 138.727 103.69 137.024 109.574ZM153.157 98.2766C149.383 102.215 144.341 105.824 138.237 108.963C139.85 103.187 140.978 97.1025 141.555 90.7947C146.912 89.6417 151.383 88.3346 154.765 86.9126C154.479 90.7863 153.937 94.5809 153.157 98.2766ZM154.464 96.8405C155.111 93.4527 155.56 89.9871 155.799 86.4584C157.521 85.6677 158.91 84.844 159.934 83.9935C159.876 85.4575 159.778 86.9114 159.642 88.3541C158.544 91.2948 156.797 94.1381 154.464 96.8405ZM154.697 65.4321C156.961 68.1096 158.652 70.923 159.71 73.8305C159.799 74.8783 159.867 75.9319 159.915 76.9909C158.893 76.1459 157.51 75.3274 155.799 74.5416C155.59 71.4535 155.22 68.4137 154.697 65.4321Z" fill="url(#paint0_linear_1058_8050)"/>
<path fill-rule="evenodd" clip-rule="evenodd" d="M159.671 82.8934C159.781 82.7904 159.884 82.6888 159.979 82.5885C159.993 81.9648 160 81.3393 160 80.7122L160 80.5H156C156 82.1185 155.956 83.7258 155.869 85.3207C157.545 84.5135 158.812 83.6973 159.671 82.8934ZM159.967 78.3997C159.978 78.7659 159.986 79.1326 159.991 79.5H155.994C155.98 78.219 155.938 76.9452 155.869 75.6793C157.545 76.4865 158.812 77.3027 159.671 78.1066C159.777 78.2056 159.876 78.3033 159.967 78.3997ZM154.84 75.2077C154.926 76.6284 154.978 78.0595 154.994 79.5H141.99C141.951 76.7061 141.805 73.9468 141.557 71.2289C147.037 72.4178 151.533 73.7616 154.84 75.2077ZM140.533 71.0108C140.795 73.7981 140.95 76.6303 140.99 79.5H121.997C121.973 75.6216 121.809 71.8093 121.515 68.0814C127.591 68.7567 133.159 69.5789 138.088 70.522C138.922 70.6816 139.737 70.8446 140.533 71.0108ZM140.999 80.5H122C122 84.7234 121.834 88.8708 121.515 92.9186C127.591 92.2433 133.159 91.4211 138.088 90.478C138.954 90.3123 139.799 90.1429 140.624 89.9702C140.872 87.026 141 84.033 141 81C141 80.8332 141 80.6665 140.999 80.5ZM120.503 67.9708C120.805 71.7317 120.972 75.5812 120.997 79.5L95.9974 79.5C95.9817 74.9857 95.8954 70.5617 95.7439 66.2568C104.591 66.5689 112.928 67.1566 120.503 67.9708ZM121 80.5L95.9997 80.5L96 81C96 85.6842 95.9239 90.2755 95.7779 94.742C104.612 94.4296 112.938 93.8423 120.503 93.0292C120.83 88.9489 121 84.7643 121 80.5ZM94.742 66.2227C94.8946 70.5369 94.9816 74.9724 94.9974 79.5L80.5 79.5V66.0003L81 66C85.6856 66 90.277 66.0763 94.742 66.2227ZM94.9997 80.5L80.5 80.5V94.9997L81 95C85.6976 95 90.3004 94.9233 94.7762 94.7762C94.9233 90.3004 95 85.6976 95 81L94.9997 80.5ZM79.5 66.0026V79.5H66.0026C66.0183 74.9844 66.1049 70.5603 66.2568 66.2568C70.5603 66.1049 74.9844 66.0183 79.5 66.0026ZM79.5 80.5H66.0003L66 81C66 85.6856 66.0763 90.277 66.2227 94.742C70.5369 94.8946 74.9725 94.9816 79.5 94.9974V80.5ZM65.2549 66.2934C65.1042 70.5868 65.0183 74.9985 65.0026 79.5H41.0031C41.0276 75.5812 41.1955 71.7317 41.4968 67.9708C48.7856 67.1874 56.7799 66.6137 65.2549 66.2934ZM65.0003 80.5L41 80.5C41 84.7643 41.1699 88.9489 41.4968 93.0292C48.7758 93.8116 56.7585 94.3848 65.221 94.7054C65.0757 90.2504 65 85.6714 65 81L65.0003 80.5ZM40.4849 68.0814C40.1909 71.8093 40.0272 75.6216 40.0031 79.5H20.0104C20.0493 76.7048 20.1967 73.9451 20.4472 71.2279C21.5621 70.9861 22.7177 70.7506 23.9123 70.522C28.8407 69.5789 34.4095 68.7567 40.4849 68.0814ZM40 80.5L20.0012 80.5C20.0004 80.6665 20 80.8332 20 81C20 83.9583 20.1215 86.8786 20.3582 89.7527C21.5006 90.0014 22.6859 90.2433 23.9123 90.478C28.8407 91.4211 34.4095 92.2433 40.4849 92.9186C40.1657 88.8708 40 84.7234 40 80.5ZM19.4226 71.4546C19.1868 74.0995 19.0478 76.7834 19.0103 79.5H8.0057C8.02375 77.9139 8.0847 76.3392 8.18733 74.7771C11.1535 73.5839 14.9387 72.4661 19.4226 71.4546ZM19.0012 80.5L8.00001 80.5C8.00001 82.4246 8.06316 84.333 8.18733 86.2229C11.1346 87.4084 14.8903 88.5196 19.3366 89.526C19.1141 86.724 19 83.8796 19 81C19 80.8332 19.0004 80.6665 19.0012 80.5ZM7.1584 75.2084C7.07307 76.6292 7.02186 78.0601 7.00564 79.5H2.05579C2.08716 79.0788 2.13169 78.6589 2.18921 78.2404C2.23422 78.1961 2.28069 78.1515 2.32866 78.1066C3.29556 77.2024 4.77731 76.2828 6.77758 75.3778C6.90271 75.3212 7.02965 75.2647 7.1584 75.2084ZM7.00001 80.5L2.00722 80.5C2.00423 80.7072 2.00216 80.9145 2.00103 81.1221L2.002 81.2842C2.00836 81.736 2.02987 82.1865 2.06634 82.6355C2.14832 82.7205 2.23569 82.8065 2.32866 82.8934C3.29556 83.7976 4.77731 84.7172 6.77758 85.6222C6.90271 85.6788 7.02965 85.7353 7.1584 85.7916C7.05335 84.0424 7.00001 82.2779 7.00001 80.5ZM155 80.5H141.999C142 80.6665 142 80.8332 142 81C142 83.957 141.88 86.877 141.645 89.752C147.085 88.5678 151.55 87.2307 154.84 85.7923C154.946 84.0433 155 82.2785 155 80.5ZM162 80.7147C162 80.6432 162 80.5716 162 80.5C162 79.9491 161.99 79.3998 161.971 78.8524C161.402 57.415 152.323 38.0785 137.961 24.0388C125.078 10.86 107.735 2.13033 88.4019 0.340866C86.1293 0.11528 83.8271 0 81.5 0C81.4201 0 81.3404 0.00012207 81.2606 0.000396729C81.1738 0.00012207 81.0869 -1.52588e-05 81 -1.52588e-05C80.9049 -1.52588e-05 80.8098 0.000152588 80.7147 0.000488281C80.6432 0.000167847 80.5716 0 80.5 0C79.9491 0 79.3998 0.00953674 78.8524 0.0285034C49.2107 0.81665 23.5858 17.8716 10.4259 42.6696C6.09023 50.5275 3.04624 59.1856 1.5769 68.3634C0.542589 72.287 0 76.3454 0 80.5C0 84.163 0.421767 87.7511 1.23044 91.238C3.55681 109.289 11.9523 125.459 24.3245 137.676C35.9975 149.497 51.2802 157.688 68.3635 160.423C72.287 161.457 76.3454 162 80.5 162C84.163 162 87.7511 161.578 91.238 160.77C101.307 159.472 110.791 156.286 119.33 151.574C142.651 139.198 159.123 115.799 161.659 88.402C161.885 86.1293 162 83.8271 162 81.5C162 81.4201 162 81.3403 162 81.2605C162 81.1737 162 81.0869 162 81C162 80.9049 162 80.8098 162 80.7147ZM123.256 13.8226C128.33 16.9429 133.024 20.6121 137.254 24.7464C142.935 30.5591 147.738 37.2481 151.445 44.5945C148.04 39.0799 143.896 34.0067 139.137 29.4907C134.576 23.48 129.225 18.1956 123.256 13.8226ZM111.058 7.69325C119.929 11.9134 127.887 17.9755 134.514 25.4349C128.574 20.6207 121.863 16.6018 114.574 13.5581C110.141 9.66531 105.302 6.51048 100.16 4.2269C103.903 5.1274 107.542 6.28975 111.058 7.69325ZM91.4439 2.6351C92.2938 2.74219 93.1394 2.86255 93.9807 2.99594C100.283 4.89458 106.22 8.09775 111.618 12.3893C107.81 10.9669 103.859 9.80606 99.7884 8.93098C97.1599 6.26541 94.3656 4.14169 91.4439 2.6351ZM83.9754 2.04405C85.383 2.09026 86.7813 2.17262 88.1695 2.29025C91.5932 3.53543 94.8865 5.65921 97.9809 8.56271C94.3644 7.86639 90.659 7.39462 86.8825 7.16389C85.9582 4.97867 84.9856 3.25343 83.9754 2.04405ZM80.5 2.00378C80.7623 2.00127 81.0249 2 81.2878 2C81.7182 2 82.1478 2.00339 82.5765 2.01012C82.6806 2.10808 82.7863 2.21411 82.8934 2.32866C83.7976 3.29556 84.7172 4.77731 85.6222 6.77757C85.6707 6.88469 85.719 6.99312 85.7673 7.10287C84.3542 7.03458 82.9314 7 81.5 7C81.1662 7 80.8329 7.00188 80.5 7.00563V2.00378ZM78.3798 2.05159C78.7526 2.03835 79.126 2.02763 79.5 2.01947V7.02254C78.0498 7.05527 76.609 7.12349 75.1788 7.2263C75.2449 7.07423 75.3113 6.92465 75.3778 6.77757C76.2828 4.77731 77.2024 3.29556 78.1066 2.32866C78.1988 2.2301 78.2899 2.13783 78.3798 2.05159ZM73.646 2.35829C74.7465 2.25456 75.8535 2.17302 76.9666 2.11409C75.9541 3.34776 74.9797 5.10004 74.0543 7.31444C70.55 7.61186 67.1107 8.11716 63.7509 8.81685C66.8675 5.83595 70.1894 3.64903 73.646 2.35829ZM65.0184 3.64662C66.7793 3.28474 68.5614 2.98045 70.3628 2.73578C67.4079 4.29004 64.5847 6.47626 61.933 9.21614C56.917 10.3754 52.0874 11.97 47.4936 13.9543C52.8221 9.35622 58.7237 5.84576 65.0184 3.64662ZM54.0623 6.72757C55.6182 6.16728 57.1966 5.65363 58.796 5.18834C53.671 7.73479 48.8721 11.1569 44.5045 15.3161C38.7197 18.0913 33.3449 21.497 28.4864 25.4349C35.6365 17.386 44.3368 10.9641 54.0623 6.72757ZM25.0316 136.969C19.0441 130.905 14.0183 123.873 10.2046 116.126C15.2229 124.957 22.1009 132.743 30.3569 139.035C36.8326 145.644 44.4044 151.011 52.7466 154.786C42.2623 150.8 32.8441 144.682 25.0316 136.969ZM11.2894 43.1755C18.3971 30.2832 29.0254 19.5695 41.8946 12.3052C35.0559 16.9522 28.9655 22.7669 23.863 29.4906C16.0907 36.8666 9.95762 45.7289 6.0086 55.5734C7.42616 51.2658 9.19806 47.1215 11.2894 43.1755ZM142.709 34.5963C148.54 41.0958 153.183 48.5373 156.332 56.6338C156.638 57.6095 156.926 58.5934 157.196 59.585C155.21 55.4151 152.647 51.4547 149.58 47.7595C147.668 43.124 145.362 38.7197 142.709 34.5963ZM116.829 15.6358C124.892 19.3399 132.175 24.2719 138.395 30.1653C141.903 34.7978 144.938 39.8673 147.418 45.2879C142.297 39.73 135.997 34.8446 128.793 30.8411C125.345 25.0913 121.319 19.972 116.829 15.6358ZM101.017 10.2298C105.522 11.2806 109.873 12.6867 114.033 14.4137C117.324 17.3188 120.391 20.6418 123.191 24.3291C124.537 26.1019 125.82 27.9583 127.036 29.8918C121.682 27.0787 115.86 24.7428 109.676 22.9652C107.098 18.0106 104.188 13.7187 101.017 10.2298ZM87.3007 8.19247C91.3899 8.46484 95.3925 9.02289 99.2854 9.84503C102.582 13.2346 105.632 17.5264 108.349 22.5938C102.688 21.0523 96.7353 19.9758 90.5709 19.4248C89.581 14.9992 88.4831 11.2142 87.3007 8.19247ZM80.5 8.00569C80.8328 8.00191 81.1662 8 81.5 8C83.0774 8 84.6438 8.04242 86.1982 8.12608C87.393 11.0825 88.5126 14.8595 89.526 19.3366C86.724 19.1141 83.8796 19 81 19C80.8332 19 80.6665 19.0004 80.5 19.0011V8.00569ZM74.7475 8.26114C76.319 8.13905 77.9036 8.05919 79.5 8.02278V19.0103C76.7834 19.0478 74.0995 19.1868 71.4546 19.4225C72.4578 14.9758 73.5654 11.2162 74.7475 8.26114ZM62.4468 10.123C66.0838 9.29623 69.82 8.70082 73.6362 8.35469C72.4693 11.3713 71.3856 15.1331 70.4077 19.5211C64.6067 20.0963 58.9988 21.1376 53.6511 22.5938C56.2944 17.6639 59.2532 13.4681 62.4468 10.123ZM45.0839 16.1449C50.0118 13.793 55.2409 11.9033 60.7048 10.5385C57.6423 13.9707 54.8269 18.1557 52.3241 22.9652C45.5574 24.9104 39.2234 27.5241 33.462 30.7C34.8253 28.4743 36.2768 26.3475 37.8094 24.3291C40.0678 21.3546 42.5002 18.6171 45.0839 16.1449ZM24.605 30.1652C29.8014 25.2417 35.7399 20.9891 42.2552 17.563C38.3147 21.6895 34.7675 26.4394 31.6995 31.6995C26.0054 35.0206 20.9091 38.9033 16.5544 43.2385C18.8411 38.5858 21.5425 34.209 24.605 30.1652ZM7.45978 54.6853C10.5744 47.3415 14.9307 40.5708 20.2915 34.5962C18.0741 38.0419 16.0995 41.6836 14.3945 45.4926C11.7514 48.386 9.42699 51.46 7.45978 54.6853ZM2.52407 73.0194C2.99819 69.2078 3.788 65.4839 4.86885 61.871C6.90023 57.1237 9.68873 52.6281 13.1318 48.4668C11.2053 53.2609 9.69803 58.2973 8.65998 63.5219C5.89313 66.5078 3.81321 69.6913 2.52407 73.0194ZM3.3781 95.1912C3.05553 93.6094 2.78781 92.0099 2.57683 90.3944C2.50552 89.8001 2.44069 89.2039 2.38242 88.6057C3.69721 92.1756 5.92044 95.5824 8.9252 98.7615C9.94842 103.528 11.3635 108.133 13.1318 112.533C8.74989 107.237 5.42821 101.4 3.3781 95.1912ZM25.7435 133.892C16.2401 125.244 9.08176 114.404 5.22068 102.269C7.57256 106.986 10.6666 111.426 14.3945 115.507C17.3925 122.205 21.2241 128.386 25.7435 133.892ZM36.1362 143.053C41.7255 147.801 47.9655 151.69 54.6853 154.54C51.9197 152.853 49.2654 150.904 46.7407 148.716C43.0405 147.074 39.4969 145.178 36.1362 143.053ZM44.2733 146.463C39.5548 144.146 35.1197 141.404 31.0275 138.29C25.2342 132.371 20.3292 125.442 16.5544 117.761C20.6891 121.878 25.4924 125.586 30.8411 128.793C34.5992 135.555 39.1343 141.521 44.2733 146.463ZM49.9605 150.065C53.6974 152.962 57.6864 155.341 61.871 157.131C65.4839 158.212 69.2078 159.002 73.0194 159.476C70.1186 158.352 67.3278 156.628 64.6818 154.372C59.5792 153.368 54.6554 151.917 49.9605 150.065ZM63.2086 153.047C57.6526 151.838 52.323 150.09 47.2873 147.867C43.8747 144.896 40.6995 141.477 37.8094 137.671C35.9354 135.203 34.1826 132.573 32.564 129.798C38.563 133.201 45.204 135.988 52.3241 138.035C55.4949 144.128 59.1674 149.219 63.2086 153.047ZM66.7423 154.751C69.9061 157.167 73.2447 158.794 76.6921 159.538C75.9403 158.545 75.2103 157.266 74.5068 155.723C71.8805 155.514 69.2904 155.188 66.7423 154.751ZM74.0528 154.682C71.027 154.422 68.0508 154.006 65.1339 153.442C60.9048 149.785 57.0215 144.692 53.6511 138.406C58.9301 139.844 64.4627 140.877 70.1842 141.456C71.333 146.814 72.6355 151.29 74.0528 154.682ZM75.6494 155.806C76.4663 157.514 77.2927 158.801 78.1066 159.671C78.1515 159.719 78.1961 159.766 78.2404 159.811C78.6589 159.868 79.0788 159.913 79.5 159.944V155.977C78.2087 155.948 76.9249 155.891 75.6494 155.806ZM79.5 154.977C78.0492 154.944 76.6081 154.875 75.1777 154.771C73.743 151.471 72.4096 146.999 71.2289 141.557C73.9468 141.805 76.7061 141.951 79.5 141.99V154.977ZM80.5 155.994V159.993C80.7249 159.996 80.95 159.998 81.1753 159.999C81.6637 159.995 82.1505 159.973 82.6355 159.934C82.7205 159.852 82.8065 159.764 82.8934 159.671C83.6893 158.82 84.4972 157.57 85.2966 155.919C84.0384 155.973 82.7726 156 81.5 156C81.1662 156 80.8329 155.998 80.5 155.994ZM85.7677 154.896C84.3548 154.965 82.9319 155 81.5 155C81.1662 155 80.8328 154.998 80.5 154.994V141.999C80.6666 142 80.8332 142 81 142C83.957 142 86.877 141.88 89.752 141.645C88.561 147.116 87.2154 151.601 85.7677 154.896ZM86.4291 155.863C85.6927 157.457 84.9277 158.764 84.1392 159.755C87.9 159.166 91.5419 157.527 94.9808 154.96C92.1768 155.397 89.3236 155.701 86.4291 155.863ZM96.5895 153.679C93.4177 154.242 90.1783 154.631 86.8832 154.834C88.3166 151.445 89.6338 146.949 90.7947 141.555C96.8794 140.998 102.756 139.929 108.349 138.406C104.905 144.829 100.926 150.006 96.5895 153.679ZM97.03 154.615C94.338 156.862 91.4984 158.561 88.5478 159.639C90.7929 159.408 93.0089 159.067 95.1912 158.622C100.086 157.006 104.749 154.599 109.099 151.506C105.207 152.821 101.176 153.865 97.03 154.615ZM111.776 149.484C107.526 151.104 103.089 152.393 98.5038 153.316C102.658 149.459 106.43 144.272 109.676 138.035C116.213 136.156 122.346 133.653 127.949 130.622C126.467 133.094 124.878 135.448 123.191 137.671C119.761 142.188 115.929 146.159 111.776 149.484ZM112.283 150.359C109.12 152.879 105.771 155.033 102.269 156.779C111.31 153.903 119.632 149.196 126.864 143.053C122.317 145.929 117.434 148.384 112.283 150.359ZM131.973 138.29C126.75 142.263 120.97 145.633 114.754 148.283C120.481 143.216 125.525 136.914 129.667 129.667C136.507 125.757 142.505 121.044 147.418 115.712C143.529 124.212 138.277 131.849 131.973 138.29ZM132.643 139.035C137.529 135.311 141.932 131.064 145.753 126.387C138.774 136.442 129.554 144.795 118.824 150.711C116.799 151.784 114.721 152.774 112.595 153.674C120.016 149.987 126.779 145.02 132.643 139.035ZM137.256 133.892C142.282 127.77 146.456 120.814 149.58 113.24C152.781 109.383 155.434 105.237 157.454 100.864C156.257 105.5 154.657 109.972 152.694 114.239C148.743 121.568 143.507 128.204 137.256 133.892ZM137.671 37.8094C135.203 35.9354 132.573 34.1826 129.798 32.564C133.106 38.3945 135.831 44.8315 137.861 51.7255C143.946 54.7649 149.088 58.2926 153.041 62.1842C151.991 57.3663 150.536 52.7188 148.718 48.2857C145.555 44.4926 141.846 40.9795 137.671 37.8094ZM128.073 31.5854C122.63 28.5834 116.665 26.087 110.3 24.1897C113.246 30.0985 115.732 36.8948 117.645 44.3553C124.616 46.1426 131.008 48.4308 136.638 51.1272C134.481 44.0539 131.583 37.4842 128.073 31.5854ZM108.986 23.8083C103.211 22.1759 97.1185 21.0336 90.7956 20.4493C92.0318 26.1937 93.0909 32.9563 93.9248 40.4854C101.912 41.1156 109.511 42.3439 116.54 44.0774C114.596 36.6321 112.076 29.8741 109.1 24.0318L109.058 23.9488L108.986 23.8083ZM81 20C80.8332 20 80.6665 20.0004 80.5 20.0012V40.0031C80.8329 40.001 81.1662 40 81.5 40C85.3733 40 89.1828 40.1393 92.9101 40.4087C92.2364 34.3629 91.4171 28.82 90.478 23.9123C90.2433 22.6859 90.0014 21.5006 89.7527 20.3582C86.8786 20.1215 83.9583 20 81 20ZM79.5 20.0104C76.7048 20.0493 73.9452 20.1967 71.2279 20.4472C70.9861 21.5621 70.7506 22.7177 70.522 23.9123C69.5747 28.8631 68.7493 34.4601 68.0722 40.5678C71.8008 40.249 75.6163 40.0606 79.5 40.0124V20.0104ZM70.183 20.5488C64.2251 21.1582 58.4773 22.264 53.014 23.8083L52.9648 23.9042L52.8997 24.0318C49.8883 29.9443 47.3437 36.7948 45.3902 44.3463C52.1261 42.6216 59.4028 41.3643 67.0562 40.6581C67.8881 33.1032 68.9466 26.3157 70.183 20.5488ZM51.7003 24.1897C44.7461 26.2624 38.2706 29.0502 32.431 32.431C28.9534 38.4378 26.1032 45.1175 24.0134 52.299C29.9119 49.2347 36.7475 46.6399 44.2839 44.6351C46.2059 37.0646 48.7174 30.1723 51.7003 24.1897ZM24.3291 37.8094C20.9856 40.3479 17.9416 43.1063 15.2372 46.0524C12.9679 51.1498 11.1865 56.5504 9.95883 62.1841C13.3924 58.8045 17.722 55.6993 22.7875 52.9499C24.7501 45.9477 27.4264 39.4007 30.7001 33.4619C28.4743 34.8253 26.3475 36.2768 24.3291 37.8094ZM24.3291 123.191C26.1019 124.537 27.9582 125.82 29.8918 127.036C26.984 121.502 24.5861 115.467 22.7875 109.05C17.8636 106.378 13.635 103.369 10.2488 100.099C11.4606 105.27 13.1407 110.238 15.2372 114.948C17.9416 117.894 20.9856 120.652 24.3291 123.191ZM31.5854 128.073C37.6432 131.678 44.4086 134.637 51.7003 136.81C48.859 131.112 46.4454 124.588 44.5616 117.438C36.9154 115.424 29.9843 112.803 24.0134 109.701C25.9313 116.292 28.4895 122.459 31.5854 128.073ZM53.014 137.192C58.4115 138.717 64.0867 139.815 69.9679 140.429C68.8235 134.888 67.8395 128.455 67.0562 121.342C59.5096 120.646 52.3294 119.413 45.6728 117.726C47.5867 124.854 50.0315 131.337 52.8997 136.968C52.9377 137.043 52.9758 137.117 53.014 137.192ZM71.0108 140.533C73.7981 140.795 76.6303 140.95 79.5 140.99V121.988C75.6163 121.939 71.8008 121.751 68.0722 121.432C68.7493 127.54 69.5747 133.137 70.522 138.088C70.6817 138.922 70.8446 139.737 71.0108 140.533ZM81 141C84.033 141 87.026 140.872 89.9702 140.624C90.1429 139.799 90.3123 138.954 90.478 138.088C91.4171 133.18 92.2364 127.637 92.9101 121.591C89.1828 121.861 85.3733 122 81.5 122C81.1662 122 80.8329 121.999 80.5 121.997V140.999C80.6666 141 80.8332 141 81 141ZM91.0111 140.531C97.2569 139.94 103.277 138.806 108.986 137.192L109.037 137.093L109.1 136.968C111.933 131.407 114.352 125.016 116.255 117.992C109.306 119.689 101.804 120.893 93.9248 121.515C93.1398 128.603 92.1552 135.011 91.0111 140.531ZM110.3 136.81C117.003 134.813 123.261 132.15 128.933 128.933C132.059 123.423 134.66 117.359 136.638 110.873C130.933 113.605 124.445 115.918 117.365 117.716C115.492 124.757 113.104 131.186 110.3 136.81ZM137.671 123.191C141.846 120.02 145.555 116.507 148.718 112.714C150.375 108.676 151.729 104.46 152.751 100.099C148.837 103.878 143.798 107.309 137.861 110.275C136.002 116.587 133.56 122.517 130.622 127.949C133.094 126.467 135.448 124.878 137.671 123.191ZM159.365 70.5561C159.164 68.958 158.915 67.3747 158.622 65.8076C156.889 60.5602 154.247 55.578 150.826 50.9637C152.3 55.0003 153.481 59.1966 154.34 63.5219C156.417 65.7628 158.106 68.115 159.365 70.5561ZM150.825 110.036C154.364 105.264 157.068 100.099 158.796 94.6536C158.971 93.6544 159.127 92.6488 159.264 91.6372C157.962 94.1121 156.217 96.4947 154.075 98.7615C153.243 102.634 152.153 106.4 150.825 110.036ZM138.237 53.0372C144.481 56.2478 149.614 59.9516 153.415 63.9956C154.058 67.2884 154.512 70.6568 154.765 74.0874C151.363 72.6567 146.857 71.3423 141.456 70.1841C140.854 64.2404 139.763 58.5006 138.237 53.0372ZM117.923 45.4601C124.97 47.3003 131.402 49.6564 137.024 52.4265C138.637 57.9992 139.793 63.8729 140.429 69.9679C134.911 68.8283 128.509 67.8477 121.432 67.0661C120.78 59.4478 119.583 52.1925 117.923 45.4601ZM94.035 41.4973C102.101 42.1438 109.76 43.404 116.822 45.1782C118.522 51.9446 119.75 59.2595 120.418 66.956C112.847 66.1473 104.527 65.5644 95.7074 65.2549C95.3882 56.7876 94.8165 48.7941 94.035 41.4973ZM80.5 41.0031C80.8328 41.001 81.1662 41 81.5 41C85.4138 41 89.2604 41.1431 93.0209 41.4194C93.8075 48.7192 94.3837 56.7285 94.7054 65.221C90.2504 65.0757 85.6714 65 81 65L80.5 65.0003L80.5 41.0031ZM67.9618 41.581C71.7232 41.2544 75.5758 41.0615 79.5 41.0125L79.5 65.0026C74.9985 65.0182 70.5868 65.1042 66.2934 65.2549C66.6124 56.8125 67.183 48.8471 67.9618 41.581ZM45.1098 45.4517C51.8784 43.6862 59.2144 42.3965 66.9463 41.6726C66.1733 48.9326 65.6077 56.8783 65.2913 65.2913C56.8431 65.609 48.8661 66.178 41.5815 66.956C42.2411 59.3631 43.4452 52.1416 45.1098 45.4517ZM23.6369 53.628C24.0956 53.3825 24.5605 53.1397 25.0317 52.8997C30.593 50.0673 36.9839 47.6478 44.0076 45.7447C42.3834 52.3968 41.211 59.555 40.5684 67.0661C33.0494 67.8965 26.2928 68.9514 20.5488 70.183C21.1355 64.4478 22.182 58.9074 23.6369 53.628ZM9.58482 63.9956C12.8994 60.469 17.2271 57.2012 22.4212 54.2935C21.0551 59.4473 20.0734 64.8386 19.5211 70.4076C15.0906 71.395 11.2985 72.4903 8.26719 73.6701C8.52549 70.3836 8.96848 67.1547 9.58482 63.9956ZM2.46249 76.6921C3.30959 72.765 5.30334 68.9792 8.30291 65.4321C7.80599 68.2678 7.44671 71.156 7.23286 74.0884C5.25676 74.9196 3.65305 75.7901 2.46249 76.6921ZM2.245 84.1392C3.45486 85.1014 5.13377 86.0286 7.23286 86.9116C7.47879 90.2839 7.91706 93.5978 8.53581 96.8405C5.10478 92.8655 2.94108 88.5855 2.245 84.1392ZM22.4212 107.706C17.3609 104.874 13.1231 101.699 9.84317 98.2766C9.09111 94.7137 8.56027 91.0589 8.26719 87.3299C11.2765 88.5011 15.0356 89.5891 19.4248 90.5709C19.955 96.5026 20.9718 102.238 22.4212 107.706ZM44.2743 116.327C37.1457 114.413 30.6633 111.969 25.0317 109.1C24.5605 108.86 24.0956 108.618 23.6369 108.372C22.0958 102.78 21.0129 96.8948 20.4493 90.7956C26.2148 92.0364 33.006 93.0987 40.5684 93.9339C41.2457 101.85 42.5115 109.374 44.2743 116.327ZM66.9463 120.327C59.3176 119.613 52.0743 118.348 45.3812 116.619C43.5758 109.631 42.2764 102.044 41.5815 94.044C48.8556 94.8209 56.8202 95.3894 65.2549 95.7074C65.5632 104.491 66.1427 112.78 66.9463 120.327ZM79.5 120.988C75.5758 120.938 71.7232 120.746 67.9618 120.419C67.1523 112.866 66.5677 104.558 66.2568 95.7439C70.5617 95.8954 74.9858 95.9817 79.5 95.9974V120.988ZM93.0209 120.581C89.2604 120.857 85.4138 121 81.5 121C81.1662 121 80.8328 120.999 80.5 120.997V95.9997L81 96C85.6842 96 90.2755 95.9239 94.742 95.7778C94.4285 104.642 93.8383 112.995 93.0209 120.581ZM116.548 116.89C109.563 118.628 101.997 119.864 94.035 120.503C94.8472 112.919 95.4328 104.582 95.7439 95.7438C104.55 95.434 112.857 94.8515 120.418 94.044C119.715 102.147 118.39 109.828 116.548 116.89ZM137.024 109.574C131.33 112.379 124.806 114.759 117.654 116.61C119.454 109.578 120.745 101.957 121.432 93.9339C128.553 93.1475 134.99 92.1596 140.531 91.0111C139.92 97.4715 138.727 103.69 137.024 109.574ZM153.157 98.2766C149.383 102.215 144.341 105.824 138.237 108.963C139.85 103.187 140.978 97.1025 141.555 90.7947C146.912 89.6417 151.383 88.3346 154.765 86.9126C154.479 90.7863 153.937 94.5809 153.157 98.2766ZM154.464 96.8405C155.111 93.4527 155.56 89.9871 155.799 86.4584C157.521 85.6677 158.91 84.844 159.934 83.9935C159.876 85.4575 159.778 86.9114 159.642 88.3541C158.544 91.2948 156.797 94.1381 154.464 96.8405ZM154.697 65.4321C156.961 68.1096 158.652 70.923 159.71 73.8305C159.799 74.8783 159.867 75.9319 159.915 76.9909C158.893 76.1459 157.51 75.3274 155.799 74.5416C155.59 71.4535 155.22 68.4137 154.697 65.4321Z" fill="url(#paint1_linear_1058_8050)"/>
<defs>
<linearGradient id="paint0_linear_1058_8050" x1="87.6758" y1="86.309" x2="132.629" y2="83.5294" gradientUnits="userSpaceOnUse">
<stop stop-color="#EA5297"/>
<stop offset="0.505208" stop-color="#5BC5F2" stop-opacity="0.91"/>
<stop offset="0.828932" stop-color="#636AAF"/>
</linearGradient>
<linearGradient id="paint1_linear_1058_8050" x1="36.015" y1="92.9871" x2="116.912" y2="84.1489" gradientUnits="userSpaceOnUse">
<stop stop-color="#EA5297"/>
<stop offset="0.505208" stop-color="#5BC5F2" stop-opacity="0.91"/>
<stop offset="0.828932" stop-color="#636AAF"/>
</linearGradient>
</defs>
</svg>
